<?xml version="1.0" encoding="UTF-8"?>
<svg width="600" height="530" version="1.1" xmlns="http://www.w3.org/2000/svg">
 <path d="m48.04 515.36h4.6446v-17.412h-4.6446v-0.86233h24.665v6.3771h-0.87596c0-2.5208-1.9134-5.5147-6.6378-5.5147h-6.7041v8.0414h2.0283c3.5116 0 4.9308-1.8025 4.9308-3.6596h0.86819v8.094h-0.86819c0-1.8201-1.4191-3.5642-4.9308-3.5642h-2.0283v8.5008h6.819c6.2037 0 8.4969-3.3072 8.4969-6.0908h0.87012v6.961h-26.633zm40.334-5.8028h0.86818c0.46718 3.099 4.1521 6.5581 10.504 6.5581 3.5993 0 5.542-1.1582 5.542-3.1399 0-2.0517-1.8006-3.0114-8.5008-4.5492-6.56-1.5086-8.4404-3.1379-8.4404-6.0111 0-3.5351 3.9107-6.087 9.2541-6.087 4.958 0 7.4826 1.3315 8.5825 1.3315 0.49638 0 0.70466-0.40293 0.73192-1.1232h0.86623v6.5503h-0.86623c-1.1368-4.0606-5.0786-5.8826-9.6337-5.8826-3.282 0-5.0241 1.24-5.0241 2.8926 0 1.9739 2.2114 2.6726 7.5489 3.8874 7.6871 1.7695 9.7758 3.3716 9.7758 6.6729 0 3.28-3.5739 6.3265-10.009 6.3265-5.0495 0-8.6428-1.4834-9.5169-1.4834-0.63654 0-0.81368 0.64239-0.81368 1.1329h-0.86817zm38.786 5.8028h4.6348v-17.412h-2.26c-4.2942 0-6.3868 3.6032-6.56 6.1513h-0.87013l0.0272-7.0136h25.127l0.0291 7.0136h-0.87207c-0.1713-2.5481-2.2678-6.1513-6.5581-6.1513h-2.2639v17.412h4.6446v0.87013h-15.078zm27.297 0h4.0567l10.796-18.623h0.98497l10.934 18.623h4.0586v0.87013h-15.169v-0.87013h4.6446l-2.7544-4.6426h-9.6026l-2.7272 4.6426h4.6387v0.87013h-9.8595zm17.059-5.5147-4.3-7.3075-4.3176 7.3075zm22.41 5.5147h4.6485v-17.412h-4.6485v-0.86233h15.468c4.9872 0 8.9018 1.5028 8.9018 4.5512 0 2.4936-3.101 4.2047-6.9007 4.2903 4.6134 0.0915 8.6467 1.8882 8.6467 5.0241 0 2.7856-2.9043 5.2792-9.256 5.2792h-16.859zm14.453-9.7797c2.3184 0 4.6932-0.66769 4.6932-3.8562 0-3.3384-2.4372-3.7764-5.653-3.7764h-3.0464v7.6326zm0 9.7797c3.3306 0 6.0014-0.69883 6.0014-4.4674 0-3.7706-3.2138-4.4441-6.1746-4.4441h-3.8328v8.9115zm23.645 0h4.6408v-17.412h-4.6408v-0.86233h15.086v0.86233h-4.6426v17.412h3.4844c7.6579 0 9.7194-2.99 10.009-6.0908h0.86234v6.961h-24.8zm37.208 0h4.6446v-17.412h-4.6446v-0.86233h15.086v0.86233h-4.6387v17.412h4.6387v0.87013h-15.086zm30.24-5.8028h0.87208c0.4594 3.099 4.1482 6.5581 10.498 6.5581 3.6032 0 5.5478-1.1582 5.5478-3.1399 0-2.0517-1.8025-3.0114-8.5008-4.5492-6.56-1.5086-8.4443-3.1379-8.4443-6.0111 0-3.5351 3.9186-6.087 9.2561-6.087 4.956 0 7.4847 1.3315 8.5844 1.3315 0.49637 0 0.70077-0.40293 0.72608-1.1232h0.86818v6.5503h-0.86818c-1.131-4.0606-5.0806-5.8826-9.6317-5.8826-3.2761 0-5.0164 1.24-5.0164 2.8926 0 1.9739 2.2075 2.6726 7.5373 3.8874 7.6948 1.7695 9.7816 3.3716 9.7816 6.6729 0 3.28-3.5662 6.3265-10.011 6.3265-5.0456 0-8.6428-1.4834-9.5149-1.4834-0.63653 0-0.81173 0.64239-0.81173 1.1329h-0.87208zm33.132 5.8028h4.6387v-17.412h-4.6387v-0.86233h14.072v0.86233h-3.6265v7.979h11.022v-7.979h-3.6265v-0.86233h14.066v0.86233h-4.6329v17.412h4.6329v0.87013h-14.066v-0.87013h3.6265v-8.5592h-11.022v8.5592h3.6265v0.87013h-14.072zm43.642 0h4.6505v-17.412h-4.6505v-0.86233h24.663v6.3771h-0.86818c0-2.5208-1.9134-5.5147-6.6457-5.5147h-6.7061v8.0414h2.0381c3.5078 0 4.9288-1.8025 4.9288-3.6596h0.87012v8.094h-0.87012c0-1.8201-1.4211-3.5642-4.9288-3.5642h-2.0381v8.5008h6.8248c6.2038 0 8.495-3.3072 8.495-6.0908h0.87596v6.961h-26.639zm38.077 0h4.6367v-17.412h-4.6367v-0.86233h14.591c7.1032 0 13.114 3.9146 13.114 9.5714 0 5.7717-6.0968 9.5733-13.114 9.5733h-14.591zm14.039 0c5.248 0 7.3094-2.3534 7.3094-8.7033 0-6.3556-2.2288-8.7091-7.3094-8.7091h-3.5954v17.413zm35.855 0h4.7011v-17.412h-4.7011v-0.86233h10.383v18.274h4.7011v0.87011h-15.084zm25.343-13.608c0-2.5792 3.4825-5.215 9.4255-5.215 5.9488 0 9.4313 2.6356 9.4313 5.215 0 2.4663-2.1159 4.0294-5.4582 4.6426 3.1068 0.31924 6.3284 1.9739 6.3284 5.0202 0 3.0445-3.8055 5.3648-10.301 5.3648-6.4958 0-10.296-2.3204-10.296-5.3648 0-3.0464 3.2235-4.7011 6.3206-5.0202-3.3345-0.61318-5.4505-2.1763-5.4505-4.6426m13.92 9.6629c0-3.0465-1.5943-4.5278-4.4947-4.5278-2.8946 0-4.4889 1.4814-4.4889 4.5278 0 3.1904 1.5943 4.4947 4.4889 4.4947 2.9004 0 4.4947-1.3043 4.4947-4.4947m-0.63848-9.805c0-2.6123-1.2419-4.2066-3.8562-4.2066s-3.8562 1.5943-3.8562 4.2066c0 2.8965 1.2419 4.409 3.8562 4.409s3.8562-1.5125 3.8562-4.409m18.899-4.5238h13.548v-1.7422h0.87013v5.5711h-13.55v4.8976c1.2478-0.55279 2.9062-1.129 5.8865-1.129 4.7886 0 9.8672 1.9427 9.8672 5.7717 0 3.8309-5.2539 6.3245-10.996 6.3245-4.6076 0-7.8058-2.0868-7.8058-4.2416 0-1.1835 0.81952-2.4021 2.5267-2.4021 1.4541 0 2.4352 0.81559 2.4352 2.0614 0 0.92465-0.72023 1.5125-1.4405 1.5982-0.32311 0.0254-0.47301 0.17128-0.47301 0.37569 0 0.75721 2.0868 1.7383 4.267 1.7383 3.3033 0 5.5069-1.5359 5.5069-5.2208 0-3.4201-1.9115-5.139-4.9599-5.139-1.8824 0-3.9126 0.55866-4.956 1.2224h-0.72607zm42.488 0.31728c-5.7989 0.72023-8.2964 3.6499-9.0536 8.2048 0.7027-0.7514 2.3281-1.4775 4.6815-1.4775 4.9872 0 8.5514 2.6708 8.5514 6.1513 0 3.5974-4.0061 6.4978-9.4565 6.4978-4.9619 0-9.9237-2.7544-9.9237-7.9732 0-5.6607 6.0053-11.491 15.201-12.269zm-1.6195 13.052c0-4.2358-1.5086-5.4563-3.6577-5.4563s-3.9438 1.2205-3.9438 5.4563c0 4.2377 1.7947 5.4543 3.9438 5.4543s3.6577-1.2166 3.6577-5.4543m-519.35-42.163v-0.87014h9.4273v-36.611h-9.4273v-0.87014h31.58c9.9491 0 17.698 3.0133 17.698 9.0244 0 5.6685-6.3614 8.7363-14.286 8.7363 9.4294-0.0564 17.93 3.4085 17.93 10.406 0 5.1488-5.9001 10.185-17.698 10.185zm20.36-37.482v16.599h9.4858c5.3201 0 9.7155-1.7324 9.7155-8.384 0-6.3634-4.2786-8.2147-11.624-8.2147zm0 17.412v19.2h9.4858c6.015 0 12.377-2.2542 12.377-9.369 0-8.6195-5.3785-9.8303-12.781-9.8303zm96.126-17.412v24.584c0 9.7116-9.1392 13.823-20.243 13.823-9.1976 0-23.481-2.4897-23.481-13.188v-25.218h-9.3125v-0.87013h29.612v0.87013h-9.4858v25.218c0 9.0769 7.5197 11.45 14.576 11.45 8.8492 0 17.12-3.2352 17.12-12.084v-24.584h-9.7174v-0.87013h21.11v0.87013zm60.844 27.527v-2.6007c0-4.9132-4.5667-6.9922-10.813-6.9922h-10.761v18.677h8.7928v0.87013h-29.094v-0.87013h9.3708v-36.611h-9.3708v-0.87013h32.62c11.222 0 18.105 4.1112 18.105 9.4332 0 5.0299-6.1882 8.9602-14.46 8.9602 11.972 0 16.771 5.0923 16.771 10.469v4.8625c0 2.7759 1.7947 4.2164 4.5706 4.2164 2.0809 0 3.2975-0.22969 4.2786-1.0356l0.63653 0.45941c-1.6176 1.1602-3.7005 1.9115-6.998 1.9115-6.1882 0-13.65-2.8381-13.65-10.88m-21.574-27.527v17.12h8.386c6.3614 0 11.105-2.1976 11.105-8.3276 0-6.0169-3.7005-8.7927-11.51-8.7927zm50.899 37.482v-0.87011h9.3708v-36.611h-9.3708v-0.87014h31.519c10.007 0 17.698 3.0133 17.698 9.0244 0 5.6685-6.3634 8.7363-14.286 8.7363 9.4294-0.0564 17.93 3.4085 17.93 10.406 0 5.1488-5.8982 10.185-17.697 10.185zm20.299-37.482v16.599h9.4858c5.3201 0 9.7135-1.7325 9.7135-8.384 0-6.3634-4.2786-8.2147-11.624-8.2147zm0 17.413v19.2h9.4858c6.0714 0 12.435-2.2542 12.435-9.369 0-8.6195-5.4369-9.8304-12.779-9.8304zm99.261 20.069h-54.137v-0.87011h9.4858v-36.611h-9.4858v-0.87014h50.088l0.34843 0.17521v11.63h-1.2731c0-5.0359-4.2825-10.936-13.823-10.936h-15.038v17.35h5.7249c7.0584 0 9.6006-4.2163 9.6006-7.979h1.1582v16.771h-1.1582c0-3.7005-2.5423-7.9246-9.6006-7.9246h-5.7249v18.393h15.269c12.433 0 17.64-6.4199 17.64-12.028h1.1563v12.725zm56.969-9.9549v-2.6007c0-4.9132-4.5667-6.9922-10.813-6.9922h-10.817v18.677h8.7928v0.87014h-29.095v-0.87014h9.4294v-36.611h-9.4294v-0.87014h32.623c11.22 0 18.105 4.1112 18.105 9.4332 0 5.0299-6.1882 8.9602-14.46 8.9602 12.028 0 16.771 5.0923 16.771 10.469v4.8625c0 2.7759 1.7947 4.2163 4.5667 4.2163 2.0828 0 3.2975-0.22969 4.2825-1.0356l0.69493 0.4594c-1.6215 1.1602-3.7044 1.9115-7.0584 1.9115-6.1901 0-13.594-2.8381-13.594-10.88m-21.63-27.527v17.12h8.386c6.3614 0 11.162-2.1976 11.162-8.3276 0-6.0169-3.7005-8.7927-11.51-8.7927zm92.946 27.527v-2.6007c0-4.9131-4.5706-6.9922-10.817-6.9922h-10.813v18.677h8.7889v0.87014h-29.092v-0.87014h9.4294v-36.611h-9.4294v-0.87014h32.623c11.22 0 18.104 4.1112 18.104 9.4332 0 5.0299-6.1901 8.9602-14.463 8.9602 11.976 0 16.776 5.0924 16.776 10.469v4.8625c0 2.7758 1.7908 4.2163 4.5667 4.2163 2.0847 0 3.2975-0.22968 4.2825-1.0356l0.69299 0.45937c-1.6176 1.1602-3.7609 1.9115-7.0545 1.9115-6.1882 0-13.594-2.8381-13.594-10.88m-21.63-27.527v17.12h8.386c6.3614 0 11.164-2.1976 11.164-8.3276 0-6.0169-3.7589-8.7927-11.512-8.7927zm99.422 0-17.177 20.534v16.077h9.4858v0.8701h-29.674v-0.8701h9.4858v-15.847l-17.927-20.764h-10.007v-0.87013h31.983v0.87013h-10.296l16.715 19.089 15.908-19.089h-10.356v-0.87013h20.304v0.87013zm-453.89-392-10.035-5.4272c0.94604-2.0614 2.9237-3.6401 6.05-3.4707 4.4402 0.23165 7.6599 2.7369 7.5274 5.2889-0.0778 1.4502-0.84288 2.6026-3.5428 3.609m15.594-2.223c-5.9333-0.31146-9.8303 0.75722-14.006 3.0114l24.92 13.431c1.5456 0.82535 2.4118 1.0979 3.9048 1.1738 2.7758 0.14211 5.4641-0.81367 5.6256-3.8503 0.36596-6.9046-11.386-13.295-20.445-13.766m82.927-5.4115c0.0155 0.16351-0.0254 0.31924-0.0935 0.46134-1.9252 1.7986-6.5347 6.4023-6.5893 11.134-6e-3 1.0453 0.60345 2.1433 1.1505 2.9219 0.0487 0.24137 0.0778 0.51195-0.0312 0.74165-0.10902 0.24333-0.33677 0.38154-0.547 0.47886l-2.7078 0.33093c-0.12459 0.07786-0.24528 0.16741-0.32315 0.30172-0.12457 0.19272-0.16156 0.43215-0.15377 0.65795l0.8565 4.4519s-2.7584 4.7944-3.2664 6.7158c-0.26668 1.022 0.13626 2.369 0.57035 3.4201-0.0331 0.24137-0.0993 0.49638-0.27252 0.66962-0.15183 0.14989-0.35428 0.2044-0.54894 0.2297-5.4193-2.3165-23.428-9.2308-37.653-5.6101-19.635 4.995-26.201 13.624-26.201 13.624l-62.001-24.562c-0.21412-0.27447-0.41461-0.64043-0.39126-1.0064 0.0194-0.3173 0.20244-0.58008 0.4049-0.78254 2.0809-0.8565 5.1857-2.5326 8.2399-5.7094 4.6134-4.7906 26.619-27.197 64-25.47 32.29 1.4931 58.373 12.814 64.812 15.885 0.26084 0.20244 0.71439 0.62485 0.74554 1.1154m-76.68 2.3379c-5.104-0.26863-11.23 0.51195-15.874 2.4702 0.84093-0.87402 1.2419-1.7811 1.2925-2.663 0.14795-2.9062-3.4162-5.5575-7.5917-5.7756-4.3116-0.22581-9.3923 0.73971-11.621 4.5512l-0.94993 1.4035c-2.0244 2.3592-2.9316 4.6524-3.0464 6.7625-0.27252 5.1876 4.4187 9.1412 9.5169 9.4079 1.933 0.09928 4.5998-0.19856 5.2091-2.552-0.18298-1.637-2.1607-3.4162-4.0976-3.5175-0.13043-0.0097-0.26669 0.02725-0.39516 0.01752-6e-3 0.13431 0.0272 0.26863 0.0214 0.401-0.0623 1.1427-0.88181 1.5845-1.931 1.532-2.4682-0.12847-6.4199-2.8907-6.272-5.7969 0.0565-1.0122 0.64432-2.1295 2.3105-2.0381 0.79422 0.04087 1.7947 0.35817 3.1301 1.0473l26.198 14.068c3.751 1.6954 4.8762 2.9471 5.1176 4.1502-0.0252 0.57424-0.36596 1.1718-0.72414 2.0342-0.0409 0.88181 0.55673 1.2205 1.1271 1.2517 3.1048-2.8342 8.1387-3.8094 11.525-5.3492 2.803-1.2673 4.956-2.7856 5.1915-7.3971 0.48665-9.2385-9.8672-13.574-18.137-14.007m431.85 355.62s-0.87597 2.7427-3.0172 3.4104c-2.1491 0.67352-4.5921-1.057-9.7252-1.6409-3.8932-0.44384-7.6131 1.0784-9.1898 1.8453-0.0935 3e-3 -0.17908 0.0215-0.2667-3e-3 -0.24526-0.0681-0.41073-0.25112-0.52559-0.438-3e-3 -0.20828 0-0.44574 0-0.76304 3e-3 -0.91685-1.1738-1.9563-2.2036-2.7019-0.20245-0.0487-0.42046-0.0798-0.62485 0.0194-0.26086 0.12069-0.4341 0.39515-0.54309 0.63654 0.39709 2.3807 0.57814 6.6477-2.9024 7.656-4.8937 1.4035-9.4897-6.3342-11.353-8.3334-1.2127-1.2945-3.8777-2.663-5.6062-3.4708-0.18685-0.21415-0.4224-0.52559-0.41266-0.87207 0.0118-0.23556 0.15184-0.43607 0.29977-0.59374l1.5962-0.81366c0.10902-0.1421 0.20828-0.31534 0.20635-0.51195 6e-3 -0.25502-0.1382-0.49638-0.292-0.68909l-2.4819-1.3218c-0.12069-8e-3 -0.24526-8e-3 -0.36205 0.0448-0.11876 0.0506-0.21415 0.14013-0.30174 0.24332-0.11486 0.7105-0.61514 1.8901-2.5929 2.9238-3.0484 1.5904-12.034-7.2316-12.034-7.2316s-4.7672-12.133-12.238-25.45c-8.2964-14.784-15.742-19.61-21.56-20.453-4.5395-0.65989-11.421 3.6129-19.568 5.4076-8.1466 1.7947-18.24 0.69494-21.38 1.0804-3.1399 0.38543-7.5664 3.2703-15.561 3.0562-7.9928-0.21802-11.954-2.8069-16.071-3.901-4.117-1.0823-11.14-0.32898-17.71-1.9115-6.5697-1.5845-9.1588-6.4432-12.482-10.815-1.9076-2.5111-4.1248-4.3176-5.6646-5.4115-0.1713 0.0136-0.35817 0.0565-0.4847 0.19661-0.16546 0.1713-0.20828 0.4302-0.21218 0.64822l1.9505 3.2917c0.0584 0.21024 0.0875 0.44772 0.0116 0.65211-0.0175 0.0487-0.0642 0.0799-0.0896 0.12069l-7.0817 3.3151c-0.0214-2e-3 -0.0467 0.0136-0.0662 3e-3 -0.19466-0.0429-0.34065-0.17324-0.46522-0.31729-0.36013-1.4483-1.6273-5.684-4.6563-9.2113-2.3846-2.7661-6.2933-4.6912-8.7966-5.7152-0.1713-0.20634-0.3387-0.46719-0.3387-0.75139-6e-3 -0.3679 0.28614-0.6521 0.49053-0.81368 1.3879-0.25499 3.21-0.40488 5.141-0.0136 4.2552 0.86429 6.5269 2.4352 6.5269 2.4352s2.4098-5.906 10.239-4.9191c12.048 1.534 18.96 8.5086 21.173 10.821 0.16351 0.12654 0.39906 0.26085 0.69883 0.27059 0.26669 0.0116 0.5139-0.0818 0.70662-0.18104 1.6469-1.7383 6.632-6.5327 14.809-6.9922 9.3144-0.51779 14.035 1.6332 15.861 2.7817 0.18493 0.0312 0.41268 0.0254 0.63848-0.0739 0.292-0.11875 0.49638-0.36012 0.62681-0.54894 0.86428-3.2956 3.5526-11.349 13.284-14.156 5.5731-1.604 10.009 1.0258 10.009 1.0258s-0.93826 2.4236 3.2722 5.3512c4.2105 2.9277 9.5811 0.8818 14.115 1.1096 4.6912 0.23165 6.7819 2.406 13.193 1.822 5.865-0.53337 7.7183-3.1729 12.153-1.6955 2.2327 0.74555 2.7097 3.9224 4.5492 5.7191 1.8434 1.8064 4.9131 2.0342 4.9131 2.0342s0.72997 7.6093 8.6565 21.023c7.9363 13.412 14.646 21.912 14.646 21.912l4.664 1.6546 7.6929 6.5522-0.0118 4.8685s-1.8103 0.07-2.4001 1.9115c-0.87597 2.7603 1.5183 4.0645 3.9087 3.7725 1.9778-0.24916 2.8751-4.7653 3.1301-6.3362 0.11096-0.15181 0.23555-0.2842 0.39906-0.36399 0.0604-0.0351 0.12263-0.0409 0.17714-0.0681 0.7397 0.146 2.186 0.36985 3.5935 0.19855 1.9953-0.24916 5.322-2.881 5.322-2.881s7.8195 2.6882 14.718 9.33c6.1552 5.9391 7.8993 13.219 7.8993 13.219m-89.225-77.396c-0.0681-0.10125-0.15574-0.19466-0.27253-0.26279-0.18688-0.10707-0.41656-0.1129-0.63458-0.0838-0.54506 1.1874-1.639 2.7466-3.7374 3.1438-1.4775 0.28226-2.5968 0.22386-3.424 0.0623-0.10319 0.0565-0.20245 0.13042-0.27448 0.23553-0.19466 0.292-0.15767 0.69689-0.10512 0.97525 0.92268 1.2477 2.0342 2.6766 2.369 2.7505 0.59955 0.13821 4.4771-0.78448 5.6354-3.0971 0.59954-1.1835 0.5898-2.6123 0.4438-3.7238m20.941 21.34s-2.077-0.73971-4.2747-4.8198c-1.1076-2.0478-2.0304-4.3721-2.6766-6.1727-0.10512-0.0739-0.23942-0.14209-0.39712-0.13625-0.24916 0.0136-0.47301 0.1966-0.57813 0.29198 0.0877 1.8006 0.29784 4.0548 0.80785 5.974 1.1485 4.3098 3.9126 7.2589 5.3473 8.5631 0.21608 0.0799 0.47108 0.12459 0.7066 0.0175 0.18104-0.0798 0.31147-0.24721 0.42243-0.41851zm18.462 29.181c-0.51585-0.23555-1.1018-0.48084-1.7598-0.72413-1.9349-0.69106-2.6513-3.4591-4.2922-6.1416-1.6507-2.6882-6.6223-11.173-8.4131-12.97-0.73194-0.73387-1.6021-1.2653-2.3729-1.6488-0.12263 0.0272-0.24526 0.07-0.33484 0.17324-0.11679 0.13625-0.1479 0.34844-0.1479 0.51585 2.3281 2.4742 4.3525 6.122 6.2583 10.235 2.3223 5.0241 6.4452 11.84 6.4452 11.84l4.3876-0.109c0.15964-0.10125 0.31924-0.23555 0.36985-0.44383 0.0681-0.24722-0.0312-0.52752-0.14016-0.72607m44.752 23.901c-0.61124-1.3899-2.1198-4.2534-5.542-8.3022-1.968-2.3281-4.0722-3.9652-5.8359-5.0728-0.22775 0.0467-0.47301 0.146-0.61514 0.36014-0.13624 0.20242-0.15767 0.45938-0.14207 0.69297 1.3061 1.3276 2.7719 2.9549 3.9243 4.6387 3.0133 4.4051 4.7555 8.5378 4.7555 8.5378l2.9316 0.0857c0.17324-0.0798 0.33871-0.18298 0.4341-0.35622 0.0993-0.17324 0.10512-0.38152 0.0896-0.58397m-347.99-88.73-3.9867 7.5373s-9.5052-0.55674-13.708-0.38543c-5.9702 0.24138-17.377 2.0673-17.377 2.0673l-15.039 6.85c-0.14989 0.2005-0.29004 0.46718-0.24333 0.75138 0.0623 0.44577 0.54116 0.78253 0.73971 0.90516l7.835 0.89544s0.5139 2.3534-3.6868 3.971c-4.1988 1.6098-25.819-0.79226-25.819-0.79226s-4.3935 3.6207-13.087 4.4674c-8.6837 0.85066-34.443-4.7808-34.443-4.7808s-3.4396-1.1174-4.3838 0.0954c-1.6449 2.1004 0.82925 4.956 0.82925 4.956l17.447 16.766 7.5995 1.0434s8.6624 5.3279 8.5572 6.5951c-0.10513 1.2692-3.9613 0.84287-3.8503 1.7753 0.10513 0.93048 1.1368 2.6298 2.1978 3.099 1.0687 0.4555 6.7625-1.7559 7.181-2.4255 0.42241-0.66768-2.9608-2.7603-2.4546-3.8718 0.50222-1.1154 10.86-2.8771 10.86-2.8771s9.1937 3.2684 15.008 7.6151c3.8017 2.8401 6.0247 8.2185 7.1109 11.605l-3e-3 -6e-3s0.62486 1.5923 0.0292 2.5481c-0.24332 0.40489-0.66574 0.62874-1.0745 0.75917l-8.9134 1.2692-6.4803 2.5578s-1.1057-7.1226-2.4001-8.7169c-0.64237-0.79616-1.5806-1.386-2.369-1.783-0.19856 0-0.40294 0.0251-0.57814 0.16544-0.15573 0.13239-0.24138 0.3251-0.30756 0.51781 1.1777 2.7933 3.6304 9.3729 1.7014 11.841-2.4682 3.1613-10.683-2.8693-10.683-2.8693s-7.7435-2.3846-8.1192-3.0698c-0.37569-0.67936 1.931-3.5584 1.6682-4.1638-0.26863-0.61514-1.6273-1.2225-1.6273-1.2225s-3.792 5.3668-5.0417 5.4505c-1.2517 0.0935-14.115-5.7405-14.115-5.7405s-20.794-24.297-24.441-28.904c-3.6381-4.6134-9.8868-5.3356-9.8868-5.3356s-3.1223-6.015-5.4699-9.0263c-2.3476-3.0055 4.3662-17.905 6.3148-19.898 1.9505-2.003 16.785-1.1893 16.785-1.1893l28.705-6.161 18.183-4.4148 11.203 5.1546c0.29783 3e-3 0.60928-0.0565 0.86234-0.25695 0.33286-0.25305 0.50417-0.68714 0.59176-1.0726-1.0258-2.8926-3.7258-7.5684-10.58-8.09-5.4544-0.40684-21.574 5.1527-23.657 6.0753-2.0907 0.91295-22.759 4.2825-22.759 4.2825l-1.6974-2.7797s17.535-15.781 25.695-15.725c8.2983 0.0526 11.386 4.3838 12.308 6.1552 0.0293 0.0155 0.0642 0.0409 0.11095 0.0526 0.34455 0.10901 0.72608 0.0564 1.0745-0.0545 2.3788-2.0128 9.3787-7.179 16.245-4.9599 7.5138 2.4391 10.083 7.3503 10.891 9.6045 0.1421 0.11096 0.30756 0.21802 0.49443 0.27253 0.29199 0.0896 0.61124 0.0739 0.9149 0.0194 2.8381-2.2483 10.967-7.9732 19.613-5.4582 8.7986 2.5578 14.414 13.99 14.414 13.99s9.6201-4.9618 17.394-2.297c5.6198 1.9369 7.7183 6.6145 7.7183 6.6145m-127.93 26.68s-0.16157 2.7447 1.0025 5.1954c1.1641 2.4546 14.292 13.99 15.849 14.95 1.5534 0.96549 4.8451 0.73774 4.8451 0.73774l-5.4427-4.9988-9.0789-7.9499zm61.397-12.838-5.8749 1.2828-0.40684-1.425s-14.308 3.3675-24.479 3.0036c-10.165-0.36207-23.065-4.3-23.065-4.3s2.3553-1.9641 1.5241-2.6979c-0.83509-0.73192-5.5692-0.25696-5.5692-0.25696s-3.5097 1.1154-3.4746 1.8531c0.0331 0.7397 2.0517 1.5437 2.0517 1.5437l-1.8318 2.6649s-0.0175 1.0103 3.0426-0.28421c3.062-1.2944 10.587 3.7628 22.902 4.7828 12.316 1.0122 30.464-2.2541 32.346-2.7603 1.8863-0.51001 2.8342-3.4065 2.8342-3.4065m-39.939 55.282-7.6287-3.5856-13.632-16.351s-3.9244 1.3237-4.7127 1.0103c-0.79033-0.30174-3.4903-4.0489-3.4532-4.8509 0.0194-0.42436 1.0648-0.7144 2.0244-0.8818 0.11484-0.13237 0.21412-0.28227 0.26668-0.4516 0.1129-0.38542 0.0116-0.79811-0.13042-1.1582l-8.0414-7.7747-3.4961 1.9641-6.0111-11.356s-3.9146-5.0144-4.5609-6.6904c-0.64238-1.6838 2.3204-7.9829 2.3204-7.9829l4.6563-12.221 5.3628-2.8634 10.418 0.70271 3.5194-0.98109c0.0487-0.0428 0.11096-0.0817 0.13822-0.14599 0.14016-0.26668 0.0974-0.61123 0.0292-0.87207l-2.1062-3.0309 2.5442-5.943c-0.0292-0.14795-0.072-0.292-0.15573-0.42825-0.22969-0.36597-0.656-0.58593-1.0473-0.71441l-12.665 0.78059s-11.931-2.2698-14.748-1.9233c-2.8168 0.34844-7.656 9.2872-7.656 9.2872l-3.9184 11.041 9.1004 22.189 8.8862 31.226s5.5517 5.6879 7.8428 4.7496c0.65211-0.26282 0.70077-1.7072 0.67937-2.4294 0.0739-0.10709 0.15183-0.20831 0.25111-0.28617 0.0603-0.0448 0.12457-0.0759 0.18686-0.10902l3.1671 0.10515s4.1423 2.075 4.2883 2.7194c0.14599 0.64045-1.3957 1.1796-1.2964 1.9699 0.18687 1.5202 8.8589 9.4624 8.8589 9.4624s3.8094 2.3943 6.4607 2.5092c1.9213 0.0778 3.757-3.2722 4.627-5.139 0.15183-0.14794 0.32898-0.292 0.53921-0.32508 0.1752-0.031 0.33287 0.0118 0.4847 0.0798l0.67158 1.3041 7.3951-0.37568c0.1421-0.11093 0.27252-0.23943 0.37179-0.401 0.33871-0.53919 0.28032-1.2808 0.16742-1.8278m407.8-125.85c-0.0798 0.18104-0.0526 0.37959 0.0409 0.54115 1.3198 0.69494 3.2391 1.2964 5.7133 1.0084 6.8151-0.81369 11.434-6.1201 21.265-3.6362 7.582 1.9154 12.635 10.379 15.656 12.549 2.3631 1.6994 4.7225 1.5222 6.052 1.205 0.14597 0.0739 0.2803 0.18298 0.36012 0.33481 0.0818 0.14989 0.0896 0.29978 0.0778 0.45356-0.84093 1.2477-2.4936 3.0055-4.919 2.5578-5.6529-1.0667-8.4657-6.634-17.374-8.7675-7.5917-1.8259-11.69 6.7372-23.501 4.3779-3.352-0.67352-7.3679-3.6577-9.9413-5.8417-0.20438-0.0448-0.42436 0-0.58594 0.15962-0.146 0.13821-0.20245 0.32314-0.18688 0.5139 1.4989 2.1452 3.8523 4.8645 6.813 6.1804 14.473 6.4335 17.952-4.6096 30.548 0.91685 7.0816 3.101 6.8112 9.99 12.291 13.24 2.6298 1.5573 5.0572 1.8998 6.6535 1.9115 0.0564 0.0623 0.10512 0.1421 0.13626 0.23359 0.0778 0.20828 0.0409 0.41852-0.0603 0.5976-1.8649 0.91295-4.8315 2.0283-7.2257 1.386-5.0202-1.3548-8.4229-8.1154-16.093-8.3684-5.0417-0.16156-7.3212 3.5817-14.59 5.0086-5.5166 1.0804-11.164 0.0935-13.739-0.50806-0.18491 0.0545-0.34648 0.17909-0.4224 0.37375-0.0429 0.12847-0.0487 0.24917-0.0175 0.37374 1.3412 1.2886 4.0041 3.1691 7.7864 2.5987 8.6001-1.2847 12.758 5.2656 14.072 7.9051-0.0251 0.10512-0.0759 0.21023-0.16934 0.28809-0.0798 0.0623-0.17911 0.0662-0.27446 0.072-1.5865-1.1582-4.9833-3.3559-8.0706-3.4532-6.6475-0.20829-7.6054 2.3631-13.311 2.367-7.835 8e-3 -19.331-1.5904-29.339-10.669-15.645-14.2-12.361-35.081-29.442-39.296-9.005-2.2191-16.32 2.003-16.32 2.003s-3.5584-0.68716-7.4944-3.539c-3.0036-2.186-3.3093-5.7794-3.3093-5.7794s6.0772 0.59761 12.897-2.5675c3.4961-1.6273 17.819-7.6832 27.496-7.3212 23.511 0.87598 36.234 22.678 48.157 23.711 13.196 1.1407 17.523-8.6254 27.531-6.8948 8.1563 1.4093 11.261 9.9159 17.147 10.181 1.8863 0.0838 3.3248-0.10902 4.2534-0.30172 0.1499 0.0739 0.28616 0.18104 0.36595 0.34455 0.0681 0.13625 0.0876 0.28614 0.0818 0.43214-1.02 1.2847-3.0932 3.3033-6.3537 3.7316-4.8645 0.6268-11.972-5.2286-18.318-6.2349-6.3459-0.99861-11.898 4.2611-19.624 5.2091-1.748 0.21801-3.1594 0.16936-4.2533 0.0252-0.20051 0.0448-0.38155 0.18103-0.4594 0.38543m-37.805-22.109c1.0142 0.51195 2.2872 1.1992 3.4727 1.9894 4.4051 2.9394 5.2831 7.1168 10.307 9.8984 2.8713 1.5904 5.2111 2.4527 6.7508 2.9198 0.11679-0.0876 0.22969-0.1966 0.27833-0.3426 0.0448-0.11095 0.0506-0.22386 0.0448-0.33092-0.92658-0.67742-2.1433-1.6001-3.4201-2.661-4.9288-4.0937-5.0747-7.1986-12.181-10.593-2.3047-1.0959-3.9555-1.5592-5.1176-1.752-0.10512 0.0993-0.18881 0.22581-0.21412 0.38542-0.037 0.17324 0 0.34066 0.0798 0.48665m25.584 47.277c-0.0175-0.17714-0.10512-0.32314-0.22192-0.43409-2.8517-0.3718-8.3022-1.4405-12.526-4.3779-3.8738-2.6961-8.8667-10.469-11.407-14.679-0.14794-0.0292-0.30757-0.0214-0.45941 0.0487-0.0798 0.039-0.14794 0.0915-0.21022 0.15573 1.4054 4.0957 4.2008 11.281 7.438 14.471 6.9241 6.8364 14.109 6.0326 17.34 5.176 0.0409-0.1168 0.0662-0.2297 0.0467-0.36013m-153.88-231.04c0.0993-0.19076 0.0935-0.40684 0.0681-0.61317-0.75722-1.349-2.4585-3.4571-5.2772-1.8649l-1.0434 0.6891c-0.27253-2.5734 2.5423-2.9783 3.3774-5.7152 1.9252-6.2797-0.4594-12.209-5.7658-13.702-4.2631-1.203-5.8962 1.9797-5.8962 1.9797l0.32119 2.0128c-0.0778 0.16351-0.19272 0.34455-0.36986 0.42435-0.17519 0.08176-0.36595 0.04477-0.52167-0.01168-1.6176-1.4775-4.7575-3.428-8.2341-0.66962-1.022 0.81173-1.3198 1.6566-1.3976 2.1918 0.0252 0.09928 0.0506 0.2044 0.11874 0.2881 0.0739 0.10318 0.18298 0.17714 0.29783 0.23553 0.94604-0.03309 3.2781 0.07203 4.228 1.7986 0.97524 1.7695 1.565 3.9983-1.9856 4.7808-6.0208 1.3218-12.538-4.4519-16.635-7.4516-13.418-9.8245-22.717-4.8801-24.989-3.3287-0.0564 0.09344-0.11874 0.17714-0.13042 0.28616-0.0428 0.22581 0.0409 0.45356 0.13626 0.656 0.45939 0.52947 0.92658 1.5825 0.64237 2.5169-0.18492 0.19856-0.43019 0.39126-0.7105 0.42435-0.23359 0.0292-0.43798-0.06424-0.61706-0.17908-0.52559-0.50028-1.4502-1.2634-3.1262-2.406-10.48-7.1596-19.618-3.2781-22.877-1.4288-0.0448 0.15767-0.0662 0.32703-6e-3 0.49054 0.0526 0.14599 0.15184 0.27058 0.26279 0.37958 1.314 0.12264 3.2197 0.43993 4.666 1.2692 0.94409 0.5431 1.9563 1.6605 1.6935 2.1918-0.42047 0.82535-1.495 0.66184-5.4251-0.46329-4.8898-1.3938-13.99-3.5817-21.15 1.7266-3.757 2.7894-5.322 5.7911-5.9682 8.0297-0.17324 0.25695-0.39711 0.51001-0.67547 0.68326-0.13042 0.07981-0.26473 0.13626-0.3971 0.18688-17.126-1.528-21.206 8.2944-20.971 8.8628 0.24139 0.57424 2.6668-0.03699 2.7856 0.38932 0.11485 0.42241-1.3334 2.2911-1.2789 2.7681 0.0448 0.47886 2.2989 2.9588 3.2781 3.1555 0.98107 0.20244 5.324-1.4716 6.0792-2.3962 0.75333-0.92658 0.99082-4.4596 1.7792-5.2227 0.78836-0.76306 6.9474-0.81757 8.127 1.0959 1.1874 1.9349 1.1738 5.3083 1.1738 5.3083s-5.3512 2.4255-5.6782 5.8165c-0.23943 2.4391 0.62485 5.1721 1.1212 6.5133 0.11874 0.17324 0.26667 0.34455 0.47886 0.45356 0.16741 0.0876 0.34455 0.13237 0.52363 0.15573 1.3782-0.35817 4.3993-0.62485 10.535 2.5695 10.007 5.2227 16.771 7.0058 19.573 7.5761 0.10124-0.04867 0.18882-0.12458 0.24138-0.23359 0.0623-0.10706 0.0935-0.22581 0.11874-0.33675-2.3008-1.7636-7.4632-5.941-8.055-8.4638-0.77476-3.2488-0.39906-4.7011-1.4347-5.1585-1.384-0.61123-3.101 1.5631-3.5564 1.3567-0.45355-0.2044 0.27253-3.8367-0.34455-5.0222-0.60539-1.1718-3.7978 0.06229-3.718-1.3606 0.0681-1.2419 3.8348-4.0664 4.8976-4.1696 1.0706-0.10901 1.8649 1.2575 2.2872 1.2322 0.42825-0.01752 0.9655-0.92463 1.3354-0.82341 0.24917 0.07202 1.0959 1.5631 1.8531 2.7369 0.11874 0.02336 0.23943 0.04283 0.37374 0.02336 0.2005-0.02336 0.3757-0.1168 0.5178-0.23749 0.51001-3.1457 0.0564-12.274-16.456-15.758-0.17325-0.09928-0.34065-0.22386-0.42825-0.40294-0.0487-0.09344-0.0487-0.19272-0.0603-0.29588l0.96744-2.5423s5.869-3.4377 14.574-1.3295c10.414 2.5286 15.623 12.122 24.734 14.663 0.0876-0.0078 0.16741-0.0078 0.24721-0.05256 0.11875-0.06229 0.21803-0.16157 0.30562-0.27058l0.86234-4.8022 6.6846-0.47886c0.10319-0.06813 0.19856-0.15378 0.26474-0.26668 0.0857-0.16157 0.0993-0.34649 0.0935-0.52947l-4.9054-4.6387c-0.0935-0.20244-0.16546-0.44383-0.10707-0.66184 0.0564-0.23553 0.24915-0.40489 0.43214-0.51001l5.3122 0.04477s0.28226 3.3657 2.6824 5.3337c5.4582 4.4713 13.046 3.5389 16.005-0.88765 1.6799-2.513-0.0272-4.2533-1.4405-5.174l0.0214-0.01168s-0.0857-0.03699-0.19466-0.09928c-0.0778-0.04671-0.15183-0.0876-0.22579-0.13431-0.21219-0.14599-0.44773-0.36206-0.51585-0.62875-0.0681-0.24917 0.0117-0.49444 0.12069-0.69688 2.0576-2.0147 4.6602-0.42825 6.0636 1.6079 14.835 21.622 35.412 11.985 35.412 11.985s-0.52169-1.8259 0.31535-3.1301c1.2595-1.9621 3.2528-2.1295 4.337-2.0614 0.0993-0.07397 0.18493-0.15962 0.24138-0.26863m-29.701 32.432c-1.7792 0.10901-2.184 0.89738-1.9621 2.1491 0.76696 4.1248 9.4897 10.792 13.113 10.786 2.3573 0 2.803-0.68715 2.5053-2.1918-0.79422-4.4383-9.3768-10.961-13.655-10.743m-35.985-0.12069c-0.40295-2.6123-6.0227-4.9132-9.8206-6.194-0.10707 0.06423-0.21413 0.14795-0.2881 0.26279-0.0681 0.10512-0.0954 0.22386-0.11095 0.34844 1.8998 2.0517 3.7958 4.0976 5.6937 6.1045 0.72413 0.39126 2.0614 0.69104 2.7505 0.7689 1.384 0.16546 1.9252-0.41852 1.7753-1.2906m16.414 0.11485c-1.0336-0.06619-2.2152-0.14599-3.9438-0.36012-0.0876 0.05839-0.18103 0.1168-0.24138 0.21412-0.10125 0.15573-0.12264 0.34649-0.12458 0.53921 1.4775 1.8318 2.9549 3.6577 4.4266 5.4718 1.059 0.24721 3.317 0.34455 4.298 0.36012 2.1295 0.0214 2.6785-1.2361 2.5325-2.184-0.3757-2.9743-4.7692-3.9244-6.9474-4.0412m41.174-2.4994c-1.2166 0.20829-2.4274 0.41463-3.6441 0.62097-0.0526 0.04867-0.1129 0.08565-0.14989 0.15183-0.1168 0.20828-0.11096 0.46913-0.0799 0.70467 0.83899 0.85066 2.1724 2.2288 3.2722 3.4903 0.29782 0.34649 0.59565 0.69104 0.89348 1.0336 1.2731-0.1713 2.5364-0.34455 3.8036-0.51779 1.5592-0.24333 2.5968-1.1874 2.3107-2.8265-0.401-2.3281-4.0373-3.0795-6.4062-2.6571m163.45 31.885c-0.0118 0.22191-0.11096 0.41072-0.24139 0.5723-2.005-0.05256-5.0572-0.0681-8.2964 0.14794-5.614 0.37374-15.99 2.9062-34.911 2.404-18.921-0.51-31.464-9.9237-41.453-12.515-16.47-4.2825-60.752 1.8025-82.349 5.0825-40.102 6.0908-59.99-3.5155-61.325-7.7435-3.5467-11.216-13.928-14.062-13.928-14.062s-0.13821-0.89154 2.0322-1.1582c2.1704-0.26474 2.9277 0.10902 2.7545-1.9447-0.21024-2.5072-4.5764-1.8376-8.6118-6.3517-3.1029-3.4649-3.0191-5.9274-1.6157-8.6818 0.83315-1.6449 0.78254-4.2903 0.65211-5.8787 0.0506-0.24721 0.13627-0.50417 0.33481-0.66768 0.22775-0.19272 0.54116-0.20829 0.78643-0.18104 5.3746 2.0517 26.593 9.6687 53.154 8.3431 14.543-0.72024 46.802-5.8086 55.54-5.8749 38.679-0.2881 82.892 32.562 96.5 38.437 11.6 5.0047 28.116 6.2914 33.257 7.2355 2.9784 0.54309 5.8067 1.6254 7.6638 2.4449 0.0428 0.12459 0.0642 0.25501 0.0545 0.39127m-213.21-15.287c-0.76502-0.6599-1.2925-1.277-2.1295-2.2094-2.3047-2.5227-4.6115-5.0747-6.9241-7.6638 0.99082 0.32897 1.5456 0.47692 2.6707 0.59176 1.8551 0.20244 4.0761-0.72608 3.7686-3.0698-0.73971-5.1818-8.3334-8.6701-14.761-11.031-3.9419-1.4385-7.1848-2.7739-10.438-4.5434-0.14405 0.0058-0.3173 0.04283-0.42241 0.1674-0.10319 0.1129-0.13042 0.26863-0.13042 0.40489 0.7689 1.0804 2.1802 2.9082 4.7477 5.904 5.1156 5.9176 10.218 11.641 15.285 17.198 0.4224 0.43214 1.092 1.277 1.5825 2.1023 1.9252 0.9694 4.0431 1.8628 6.272 2.694 0.12457-0.01164 0.26084-0.05451 0.35427-0.16156 0.0876-0.10513 0.11875-0.25305 0.12459-0.38348m29.927 2.0147c-1.0025-0.18298-2.332-0.97134-3.3306-1.637-2.7603-1.966-5.5302-3.9555-8.3022-5.98 1.1718-0.99861 1.6702-2.0478 1.5262-4.0353-0.43409-5.577-7.8486-7.29-12.372-7.6442-2.8284-0.22386-4.9327-0.29588-9.951-1.2477-0.0778-0.0058-0.44967 0-0.60734 0.24137-0.0876 0.13043-0.0876 0.29588-0.0759 0.44188 1.057 1.5144 3.6459 5.1156 9.2775 12.441 1.5767 2.0575 3.1477 4.1132 4.7263 6.1493 0.52752 0.66572 1.0648 1.5008 1.129 2.1451 1.1563 0.27058 3.5584 0.40879 5.3746 0.38932 0.11485-0.03108 0.22775-0.08753 0.29588-0.1927 0.0993-0.14211 0.0993-0.34065 0.0739-0.49638-0.80785-0.59567-1.4035-1.314-2.297-2.3592-1.423-1.6994-2.8498-3.4026-4.2747-5.1234 1.0512 0.05645 2.0946 0.0993 3.1438 0.14211 2.3846 1.8979 4.7653 3.7706 7.148 5.6237 0.91295 0.72997 1.7383 1.5748 1.931 2.3553 1.3061-0.06034 4.6193-0.18492 6.3148-0.42046 0.0935-0.26864 0.18104-0.52947 0.27058-0.79227m16.167-4.8412c-0.60929-3.8055-3.7745-7.6521-7.6988-10.527-3.0464-2.225-6.7625-3.827-9.8362-4.1034-0.547-0.06813-1.4795-0.03699-2.075-0.01168-2.7078 0.18103-5.6256 1.3159-4.886 4.9424 1.4054 6.9864 11.915 15.308 18.827 15.006 4.4207-0.15767 6.2097-2.0304 5.6685-5.3064m24.206-0.56452c-1.5125-0.43213-2.661-1.2322-3.319-1.6273-2.7369-1.6137-5.468-3.2197-8.201-4.8237 0.99471-0.80783 1.6332-2.5169 1.4327-4.156-0.62485-4.9794-6.5561-6.3575-11.113-5.612-1.9992 0.30367-3.9983 0.61317-6.0052 0.91879-1.3724 0.21023-2.7564 0.41462-4.1345 0.62291-0.0603 0.04477-0.1129 0.09928-0.14599 0.1713-0.0603 0.13042-0.0467 0.2803-0.0136 0.41268 0.94215 0.95966 3.1652 3.2449 5.6491 6.0772 1.4405 1.6624 2.881 3.3345 4.3156 4.9969 1.4054 1.6994 2.8187 3.391 4.2319 5.0864 0.59954 0.78642 0.75138 1.347 0.75138 1.347 1.1446-0.07393 3.3151-0.32508 4.7496-0.69104 0.0351-0.03508 0.0739-0.06228 0.0993-0.10902 0.0817-0.16156 0.0584-0.36595 0.0155-0.52752-0.1674-0.13043-0.34065-0.28031-0.52167-0.4633-1.0648-1.055-2.8187-2.8595-3.8426-3.9652-0.63459-0.72607-1.2731-1.4521-1.9096-2.1821 0.9149-0.15183 1.8318-0.30367 2.7466-0.45356 2.5772 1.6293 5.1449 3.2567 7.7183 4.8899 0.58203 0.35427 1.3567 1.131 1.5962 1.5904 1.0161-0.19856 3.8874-0.6891 5.7542-0.92853 0.0526-0.18882 0.0935-0.38543 0.14599-0.57425m4.8022-11.857c-0.5178-0.04671-1.0336-0.09732-1.5514-0.13821-5.7599-0.46718-8.4424-0.75917-8.4307-2.8674 0.0312-1.0064 1.1992-1.857 2.6707-1.9544 1.857-0.11096 3.4552 0.74554 4.3896 1.785 0.11874 0.06619 0.26084 0.11874 0.40489 0.07786 0.0857-0.01752 0.15378-0.06424 0.21608-0.1168 0.60927-1.0473 1.2108-2.0847 1.8143-3.1243-0.58982-0.14211-1.0843-0.33481-1.4619-0.49054-1.2147-0.4594-2.8829-1.0667-5.8281-0.89154-3.6304 0.22191-6.669 2.262-6.3439 5.3824 0.53726 4.8489 6.3303 5.1604 11.329 5.5789 0.64627 0.05255 1.2925 0.10122 1.9388 0.15183 2.9803 0.2297 7.9966 0.63848 7.9596 3.3442 3e-3 1.3003-1.0278 1.9933-2.7194 2.0711-2.3476 0.09928-4.4402-1.1524-5.5263-2.3846-0.11484-0.04671-0.25499-0.08176-0.39126-0.03699-0.0935 0.03699-0.16157 0.10512-0.2297 0.17908-0.60929 1.2302-1.2108 2.4585-1.8201 3.6907 0.41656 0.06619 0.92463 0.29589 1.4151 0.52948 1.7091 0.73581 3.9594 1.567 7.1304 1.4308 2.8304-0.13042 6.1707-1.6546 6.2408-5.0417 0.039-5.8281-6.5794-6.7683-11.206-7.1751m29.3 2.2075c-0.59176-0.5976-1.1854-1.1893-1.7753-1.7831-1.9563-1.9738-4.8119-4.5822-6.6749-6.412-0.70661-0.69688-1.1992-1.2692-1.4853-1.7014-0.80784-0.25111-3.2294-0.4594-4.8431-0.52169-0.0526 0.03699-0.10513 0.07786-0.14209 0.14015-0.0759 0.12847-0.0759 0.2881-0.0506 0.42825 1.931 1.4327 3.3287 3.0814 5.6821 5.4057 2.0304 1.9718 4.0548 3.9594 6.089 5.9702 2.4001 2.404 1.0336 3.7258-0.92853 3.6888-1.8766-0.03699-3.8757-0.25111-8.6507-5.1546-0.93827-0.95772-1.8727-1.9173-2.8069-2.8713-1.5202-1.5359-3.4591-3.319-5.4272-5.3862-0.65794-0.72024-1.1854-1.3567-1.713-2.1179-1.1621-0.19272-4.0431-0.01168-5.6295 0.17324-0.0214 0.01947-0.0526 0.03115-0.0642 0.06035-0.0759 0.13042-0.0759 0.29394-0.0565 0.43799 3.3716 2.5637 4.3039 3.6635 8.9095 8.308 0.93242 0.97524 1.8628 1.9505 2.7992 2.9277 3.8251 3.9652 6.9883 7.0097 13.599 7.1381 4.6912 0.11096 8.5747-3.3072 3.1691-8.7305m34.768 18.078c-1.2789-1.7598-4.7731-6.1804-14.251-17.119-1.8044-2.0907-2.8069-3.208-4.1793-5.0398-1.1057-0.52753-3.4338-1.4502-5.0105-1.9563-0.10901 0.02725-0.21412 0.06813-0.28614 0.1713-0.0739 0.08954-0.0935 0.20828-0.0993 0.32508 0.90321 1.2925 0.97524 1.9817 1.4775 3.2236 0.43799 1.1952 0.87208 2.3924 1.3159 3.5896-0.0915 0.03699-0.17909 0.06813-0.26085 0.09928-3.4513-2.5598-6.891-5.0359-10.319-7.4438-1.6779-1.1718-2.3885-1.8473-2.7136-2.3379-0.97524-0.26863-4.0158-0.90321-6.1356-1.2341-0.0838 0.03115-0.16741 0.07397-0.22387 0.15378-0.0875 0.11874-0.10513 0.27446-0.0993 0.41268 2.3282 1.8727 3.0678 2.7603 6.2466 6.0344 2.2483 2.3904 4.5044 4.812 6.7625 7.2589 2.3729 2.5266 4.117 4.5667 4.9482 5.8417 1.4347 0.30756 3.8192 1.0784 5.5984 1.6799 0.0662-0.03897 0.13432-0.09541 0.1713-0.16936 0.0584-0.09347 0.0681-0.21218 0.0623-0.32702-0.9441-1.0706-2.7039-3.0756-4.6699-5.2559-0.82925-0.95772-1.6585-1.894-2.4936-2.8498 0.0351-0.11874 0.0836-0.23749 0.18102-0.32119 0.0155-0.01557 0.0331-0.01167 0.0467-0.02141 3.5759 2.879 7.1654 5.8281 10.761 8.8862 0.13236 0.0057 0.28225-0.01164 0.39515-0.10901 0.0896-0.08376 0.13237-0.19856 0.16935-0.31925-1.3666-2.6882-2.731-5.3707-4.0918-8.0414 0.0623-0.0837 0.13626-0.16157 0.2297-0.20244 0.0103-0.0018 0.0214-0.0018 0.0351-0.0018 1.8376 2.1237 3.6732 4.265 5.5166 6.4355 2.0108 2.3534 4.9833 6.3674 4.9833 6.3751 1.4619 0.58203 3.5739 1.6915 5.468 2.7194 0.11679-0.01554 0.24527-0.05062 0.33481-0.14405 0.0778-0.0857 0.10901-0.20439 0.13043-0.3134m-22.839 173.1c-1.5028 0.76112-2.9803 1.6137-4.3799 2.5889-8.4034 5.8301-13.472 11.65-15.038 13.572 0.28614 2.1549 0.52169 4.2416 0.71634 6.2817 0.10902 0.13042 0.23748 0.24527 0.41074 0.29784 0.13431 0.037 0.2803 0.0409 0.41851 0.0103 2.5092-2.663 7.4341-7.3893 14.72-12.184 1.6741-1.1057 3.463-2.0556 5.2753-2.9024-0.64627-2.5695-1.3528-5.137-2.1237-7.6638m-3.6441-10.352c-1.5066 0.78448-2.9939 1.6702-4.3915 2.7018-6.8832 5.0417-11.325 10.083-13.251 12.477 0.43993 2.2075 0.81368 4.3663 1.1544 6.5094 0.10319 0.11095 0.22386 0.20829 0.37959 0.255 0.19466 0.0545 0.3971 0.0175 0.58981-0.0448 2.332-2.6318 6.9513-7.3679 13.794-12.12 1.3938-0.9694 2.8732-1.8182 4.3702-2.5831-0.81368-2.4644-1.6955-4.8801-2.6455-7.1965m-51.513 11.574c0.1713-0.0876 0.2881-0.24917 0.38542-0.41657 0.0252-2.6065-8e-3 -5.2208-0.12068-7.8118-13.165-5.9137-22.542-7.109-22.542-7.109v-0.0136c-0.27642 3.1301-0.66379 6.2174-1.1466 9.2191 3.171 0.34845 11.88 1.6644 23.151 6.1901 0.0896-6e-3 0.18882-8e-3 0.27253-0.0584m60.335 20.645c-2.1471 0.91295-4.2689 1.968-6.2584 3.1865-8.9018 5.4641-14.537 10.846-16.698 13.083 0.0311 1.5826 0.037 3.0542 0.0252 4.4518 0.0876 0.1129 0.19855 0.21023 0.33481 0.26668 0.11875 0.0506 0.255 0.0565 0.38543 0.0506 2.9237-2.3788 8.3392-6.3693 16.14-10.477 2.3223-1.2166 4.8119-2.26 7.3075-3.1613-0.36011-2.3652-0.77474-4.849-1.2361-7.4009m-61.874 2.4897c0.14599-0.0681 0.25111-0.19271 0.33871-0.33481 0.2842-2.3437 0.54311-4.775 0.7689-7.2803-13.14-5.3317-23.207-6.9765-26.018-7.3561-0.80005 3.0562-1.6643 5.98-2.552 8.746 4.0918 0.42047 14.325 1.8531 27.18 6.2914 0.0993-6e-3 0.19272-0.0155 0.28226-0.0662m1.0862-11.425c0.15184-0.0778 0.26084-0.21218 0.35039-0.35427 0.18103-2.4994 0.32119-5.0495 0.40489-7.617-13.196-5.466-22.896-6.813-24.222-6.9688-0.52364 2.881-1.1271 5.7016-1.785 8.4249 4.0489 0.47496 13.276 1.9914 24.866 6.5951 0.13431 0 0.26474-0.0175 0.38542-0.0799m30.592-9.6201c-3.1438-3.6577-10.352-11.218-20.788-17.302-1.9272-1.1271-3.8036-2.1256-5.6295-3.0581-0.0993 0.0194-0.19855 0.0252-0.2842 0.0818-0.21218 0.12264-0.3426 0.36595-0.42825 0.58982 0.27836 2.4858 0.50806 4.9892 0.6599 7.4886 1.9544 0.94994 3.9594 1.9992 6.0208 3.1846 10.613 6.0792 17.919 13.192 21.177 16.704 0.10708-8e-3 0.21218-0.0136 0.31146-0.07 0.13237-0.0681 0.23943-0.17909 0.32508-0.30562-0.3971-2.406-0.83703-4.8334-1.3646-7.3133m27.936 7.6131c-1.7324 0.81757-3.4358 1.7363-5.0476 2.7953-9.0381 5.943-14.486 11.841-16.134 13.735 0.14599 1.9875 0.24915 3.8757 0.32897 5.7074 0.10707 0.13626 0.23943 0.26085 0.41657 0.3095 0.0993 0.0254 0.20438 0.0155 0.30756 0.0103 2.809-2.6921 7.8525-7.0603 15.08-11.491 2.1237-1.3082 4.4032-2.4216 6.6943-3.3715-0.49444-2.5306-1.0414-5.104-1.6469-7.6948m-58.481-21.932c0.18103-0.0935 0.30367-0.26084 0.3971-0.43993-0.0993-1.2808-0.20439-2.552-0.35038-3.8134-0.15767-1.386-0.33871-2.7175-0.53142-4.0119-10.761-4.8684-18.833-6.4335-20.957-6.7878 0.0526 3.025-0.0214 6.0344-0.20829 8.9991 2.5423 0.29783 10.613 1.5398 21.29 6.1356 0.12458-8e-3 0.24916-0.0194 0.36012-0.0818m52.167-6.6262c0.48471 0.9441 0.94994 1.9252 1.4093 2.916 5.9176-2.5792 11.718-3.5954 14.021-3.9243-5.8495-11.469-11.064-17.756-13.642-20.638-0.16156-0.0876-0.30756-0.17324-0.46912-0.2511-4.518-2.3146-11.267-4.4071-19.563-5.9624-0.21996 0.0915-0.44771 0.22192-0.58982 0.45161-0.26084 0.41462-0.27252 0.7689-0.21412 1.0356 4.9015 4.6524 11.913 12.495 19.048 26.372m-18.033 61.599c0.12458-0.037 0.2336-0.10901 0.32898-0.19854 0.0194-1.4093 0.0194-2.8965-6e-3 -4.5083-3.428-3.5915-11.884-11.611-24.348-17.919-2.184-1.1076-4.3215-2.1082-6.4004-3.0191-0.20635 2.6785-0.45356 5.2558-0.7144 7.6988 1.6721 0.64627 3.3832 1.3354 5.1215 2.0809 13.749 5.9118 22.672 13.14 25.771 15.869 0.0837 2e-3 0.16741 0.0175 0.24721-3e-3m-23.279-45.782c-2.0517-1.1796-4.0489-2.225-5.9858-3.1982-0.13041 0.0233-0.255 0.0681-0.36596 0.15573-0.0993 0.0817-0.1674 0.18686-0.22969 0.29782 0.0896 2.5714 0.12457 5.1273 0.10513 7.654 1.9466 0.87791 3.936 1.8318 5.9897 2.9121 11.168 5.8729 18.849 12.772 22.351 16.253 0.11095 6e-3 0.22775 6e-3 0.33481-0.0311 0.15962-0.0681 0.27446-0.1791 0.38348-0.30368-0.19077-1.8201-0.39906-3.6674-0.656-5.5672-2.8868-3.4065-10.535-11.644-21.926-18.171m23.137 36.436c0.13042-0.0487 0.23553-0.1421 0.32897-0.24137-0.0857-2.2892-0.21413-4.6893-0.40683-7.2277-3.3677-3.6051-11.255-11.244-22.773-17.302-2.3437-1.2341-4.6173-2.334-6.819-3.3268-0.0739 2.844-0.19856 5.6315-0.36596 8.3256 1.7441 0.78253 3.5272 1.6215 5.3531 2.5403 12.593 6.3771 21.015 13.971 24.348 17.266 0.11096 6e-3 0.22387 2e-3 0.33482-0.0351m59.557-31.333c-4.228-14.3-10.856-23.717-10.856-23.717s-2.1958-0.29394-4.4693-1.1992c-3.973-1.5825-7.4826-5.6801-12.853-10.241-0.21608 0.0175-0.43993 0.0623-0.63265 0.21024-0.45161 0.33481-0.5684 0.71829-0.58398 1.0064 3.428 5.0105 7.327 11.693 10.928 20.219 7.3659 17.446 10.185 35.116 11.107 42.531 0.0739 0.07 0.146 0.13821 0.24528 0.1752 0.21022 0.0818 0.44577 0.0506 0.65794-0.0116 1.1174-1.9505 2.7603-4.1735 4.923-5.2383 2.7388-1.3626 6.1979-0.81563 6.1979-0.81563s-1.2983-11.522-4.6641-22.919m-98.104 42.64c0.11679-0.0526 0.21023-0.14016 0.29783-0.2297 0.73581-3.6129 1.9427-10.009 2.9919-17.899-15.337-5.2908-26.824-6.4296-28.358-6.5581-2.4917 7.2939-5.067 13.274-6.9688 17.322 0.0312 0.23554 0.10707 0.50222 0.32313 0.66379 0.12264 0.10513 0.27448 0.15572 0.43605 0.18104 3.4571-1.4444 8.7772-2.5033 16.581-1.3412 7.2063 1.0745 11.973 5.355 14.23 7.8915 0.15963 0.0252 0.31146 0.0311 0.46719-0.0312m-16.978-74.933c2.6513 0.33871 9.9782 1.5962 19.616 5.7075 0.0993-0.0136 0.20244-0.0194 0.29199-0.072 0.1674-0.0778 0.28031-0.22969 0.37374-0.38932-2.7894-14.601-7.3192-21.804-9.1782-24.334-4.5141 0.27059-9.0108 0.64627-13.121 1.0278-0.18103 0.0545-0.36207 0.14015-0.47887 0.30367-0.13431 0.19271-0.15767 0.43798-0.15183 0.66768 0.93437 2.369 2.042 6.7158 2.5792 15.639 0.0311 0.48471 0.0467 0.96941 0.0681 1.4502m101.77 45.678c-2.5831 0.3426-9.3262 1.4288-16.375 3.9768 0.47885 2.6065 0.89737 5.1428 1.2692 7.5664 7.4925-2.3223 14.491-3.3403 16.798-3.6381-0.45551-2.3846-1.022-5.0495-1.6915-7.9051m-108.16-62.955c-7.107 0.72413-12.153 1.386-12.153 1.386s-3.7413 16.923-10.027 35.36c-4.3137 12.618-13.813 37.2-16.206 43.354 0.0448 0.20439 0.11874 0.42435 0.29978 0.57036 0.13041 0.0993 0.29198 0.15183 0.46134 0.17714 2.5831-1.2108 8.6682-3.3657 15.063-0.68521 4.0606 1.7033 6.451 4.3896 7.7767 6.4335 0.10513 0.039 0.22386 0.07 0.33871 0.0584 0.19272-0.0155 0.36207-0.11486 0.51585-0.23943 5.6179-11.16 18.068-39.461 16.945-69.416-0.44773-11.876-2.2114-15.606-3.0152-17m110.35 73.561c-2.7992 0.3757-9.661 1.456-16.871 3.7589 0.71829 5.0202 1.2147 9.4352 1.5495 12.826 0.0778 0.0896 0.16545 0.18104 0.28225 0.22971 0.16546 0.0778 0.35818 0.0739 0.53726 0.0467 1.6391-2.8595 4.3838-6.1065 8.8804-7.907 2.9237-1.1738 5.3278-1.1096 6.852-0.85845-0.17909-1.4892-0.56451-4.339-1.2302-8.0959m-18.551 20.9c0.18104-0.16157 0.26084-0.40878 0.30756-0.64627-0.30366-3.4961-0.86039-8.9407-1.7792-15.417-2.2969 0.84482-4.5706 1.824-6.7061 2.9491-9.8672 5.1857-15.972 10.237-17.961 11.992-0.0331 1.2011-0.0818 2.2484-0.13431 3.2061 0.072 0.12847 0.16546 0.24916 0.29978 0.32313 0.11095 0.072 0.24137 0.0974 0.37764 0.1129 2.3476-1.6118 5.974-3.208 11.483-3.7861 6.5387-0.68131 10.961 0.45355 13.461 1.4658 0.21801 0 0.46718-0.037 0.6521-0.19856m-30.21 5.3726c0.16741-0.0252 0.30757-0.11873 0.43993-0.22385 0.0935-1.3082 0.2005-3.1146 0.27642-5.3726-3.4416-3.1788-12.266-10.543-25.489-16.231-2.1334-0.92269-4.2261-1.7578-6.2661-2.5247-0.75724 6.2524-1.6021 11.38-2.2211 14.742 0.0506 0.14016 0.11679 0.26474 0.23359 0.36402 0.18298 0.15767 0.43993 0.20439 0.67741 0.22191 3.0484-1.3003 7.7183-2.2444 14.543-1.129 8.2147 1.3412 14.872 7.4826 17.408 10.115 0.12458 0.0448 0.26085 0.0623 0.3971 0.039m27.887-43.973c0.62487 2.6376 1.1874 5.2734 1.6956 7.8506 7.179-2.5365 13.954-3.5584 16.232-3.8581-0.65794-2.5968-1.4035-5.3122-2.2541-8.1173-2.8752 0.41853-9.2036 1.5553-15.674 4.1248m-2.9685-10.981c0.79031 2.5462 1.5105 5.1409 2.1743 7.7396 6.412-2.5169 12.637-3.6284 15.471-4.045-0.83509-2.5578-1.748-5.1663-2.7642-7.7922-2.7349 0.40294-8.7577 1.5144-14.881 4.0976m-9.5987-15.388c-9.7194-18.899-19.516-27.155-23.126-29.911-4.3409-0.55867-9.0224-1.131-13.896-1.3666-0.14988 0.10513-0.29198 0.23359-0.35427 0.42241-0.0681 0.19855-0.0312 0.41073 0.0252 0.61513 3.829 3.7958 10.696 12.457 17.266 31.655 1.822 5.3356 3.2722 10.656 4.4421 15.841 0.10513 0.1129 0.22387 0.21802 0.38154 0.26473 0.14015 0.0331 0.28031 0.0312 0.42046 6e-3 2.223-2.6337 6.3771-7.0603 12.451-11.516 1.2945-0.9441 2.6668-1.7792 4.0548-2.5208-0.53531-1.1992-1.0882-2.367-1.6644-3.4903m-20.188 14.239c0.13042-0.0759 0.23553-0.18102 0.32313-0.31145-1.0025-3.9964-2.1704-8.0589-3.5642-12.13-7.4399-21.755-15.921-30.562-19.213-33.417-1.1485-0.0254-2.2911-0.0623-3.4649-0.0623-2.7291-6e-3 -5.6627 0.0739-8.6565 0.20828-0.21607 0.10707-0.44381 0.27642-0.53337 0.53336-0.0817 0.24528-0.0214 0.5178 0.0623 0.74749 2.1354 2.8517 5.5224 8.6254 7.8857 19.536 0.44967 2.0614 0.82537 4.1677 1.1485 6.2875 2.0128 0.99083 4.0957 2.0965 6.2388 3.3384 9.2911 5.4134 15.943 11.611 19.493 15.332 0.0935-0.0136 0.19077-0.0194 0.28031-0.0623m40.312-13.046c-1.7188 0.21607-7.8661 1.1271-14.231 3.8367 0.96941 2.3184 1.859 4.738 2.694 7.216 5.9488-2.515 11.798-3.6402 14.644-4.0684-0.12848-0.30366-0.24333-0.60733-0.36791-0.90516-0.90323-2.1393-1.8182-4.1638-2.7388-6.0792m-95.553-35.174s-4.1482-1.1076-5.0359-1.5884c-0.88764-0.4886-2.2523-3.1788-2.8498-3.4241-0.60345-0.24917-2.2075 0.34454-2.2075 0.34454l-2.2639 6.3575c0.0175 0.2336 0.0857 0.49054 0.29198 0.66185 0.15378 0.14015 0.3718 0.18882 0.58982 0.20828l11.351-1.4755c0.12459-0.18882 0.22387-0.40684 0.22387-0.65405-6e-3 -0.18104-0.0584-0.29977-0.0993-0.4302m31.104-2.951c-1.4658-2.2152-4.0489-3.3442-4.0489-3.3442s-5.1234-0.0351-5.865 0.57813c-0.74166 0.6015-2.0401 2.3146-2.7739 2.7252-0.73581 0.41657-4.6505 1.9621-4.6505 1.9621-0.0428 0.13627-0.0739 0.27252-0.0565 0.41851 0.0312 0.27058 0.1129 0.47302 0.20634 0.54311l17.687-0.44967s0.53726-0.87207-0.49834-2.4333m-31.799-5.542s-3.8854 0.93632-4.0586 2.6376c-0.1713 1.7014 6.7722 4.5453 13.714 3.2645 5.0864-0.93437 9.2269-3.0971 9.2113-4.518-0.0214-1.4308-3.8581-2.8946-3.8581-2.8946s-1.3315 2.591-7.216 3.4532c-5.5634 0.81757-7.7922-1.9427-7.7922-1.9427m7.9538-0.55283c2.3281-0.50417 4.7011-1.3354 4.666-2.0614-0.039-0.72024-2.6356-1.9757-5.466-1.5845-2.8265 0.39128-5.1234 2.223-4.9657 2.7505 0.16547 0.53141 2.2892 1.6409 5.7658 0.89543m210.62-76.169c-6e-3 -0.18494-0.0739-0.3465-0.16741-0.49249-1.4696-0.34455-3.5954-1.0531-6.303-2.5247-5.4777-2.9842-7.0545-13.79-23.217-18.685-12.513-3.7881-24.07-1.2906-28.672 0.0312-0.13043 0.19272-0.20635 0.42241-0.18298 0.67158 0.0154 0.14794 0.0681 0.29198 0.14016 0.41462 3.3715 0.73387 10.175 2.5227 15.232 5.8943 6.414 4.2708 15.398 12.575 23.746 15.772 6.2272 2.3846 15.166 0.51001 19.305-0.59177 0.0759-0.14988 0.12846-0.31145 0.11873-0.48858m38.118 12.563c-0.0215-0.14989-0.0838-0.28032-0.15964-0.40489-1.3412-0.17714-3.2508-0.58009-5.1663-1.5028-3.9341-1.8863-4.9735-7.619-13.312-10.35-6.9591-2.2853-12.158 0.48275-17.161 2.0985-1.1076 0.35623-2.6045 0.72219-3.936 1.022-0.13626 0.22191-0.19274 0.49832-0.13433 0.7689 0.029 0.12458 0.0877 0.23359 0.1499 0.33287 2.295 0.3971 5.3687 1.0979 7.5625 2.2347 4.3039 2.2327 6.4218 5.7016 14.427 8.5202 6.78 2.3865 14.242-0.44771 17.585-2.0362 0.11679-0.20244 0.18491-0.43603 0.146-0.68325m-292.86-10.258c0.15767 0.11096 0.35428 0.1421 0.54505 0.14599l6.1921-3.6868-2.77-3.3578-4.3564 2.5266c3e-3 1.4969 0.15573 2.8381 0.14015 4.0761 0.0623 0.11484 0.13627 0.21996 0.24917 0.29588m16.688 1.7499c-4.4869-4.8061-5.1351-10.86-10.432-17.059-2.3943-2.8108-6.194-5.6763-7.9051-6.9903-0.14016-0.0116-0.28226 0-0.41269 0.0876-0.18686 0.11875-0.26473 0.24138-0.31729 0.36986 0.16156 1.0531 0.36596 2.2814 0.68909 4.1793l12.369 15.327s-5.1721 2.3846-7.6306 3.7783c-1.2166 0.69689-2.3729 1.4911-3.2236 2.1159 8e-3 0.0739 8e-3 0.1674 0.0194 0.24721 0.22969 1.894 0.80783 5.3531 1.2419 7.9168 0.20439 0.14405 0.44382 0.27641 0.72998 0.27446 0.47691-0.0136 0.7689-0.19076 0.96162-0.38154 1.1738-2.6513 3.3268-6.0403 6.9765-5.6724 7.1654 0.72023 7.8486 5.7094 7.8486 5.7094s1.7617 1.5495 3.8387 0.63848c2.0712-0.9149 2.1821-3.5661 2.1821-3.5661-2.661-2.9881-2.7661-2.5033-6.9357-6.9746m-17.278-14.059 6e-3 6e-3c0.0312-0.0117 0.0584-0.0175 0.0778-0.0233-0.0155 0-0.0409 0.0116-0.0838 0.0175m0.1421 5.213c0.1421 0.10318 0.3173 0.13431 0.49054 0.146l2.5889-1.6818-3.2158-3.6713c-0.0103 0-0.0155 8e-3 -0.0214 8e-3 -0.17519 0.0759-0.27446 0.17909-0.34454 0.28226 0.17324 1.5301 0.26668 3.1146 0.31535 4.6972 0.0564 0.0798 0.10707 0.1674 0.18687 0.21996m-0.0584-5.2305c0.0116-8e-3 0.0155-8e-3 0 0m95.514 60.003s-62.131-25.662-73.871-31.564c-6.085-3.0562-10.953-7.4652-10.953-7.4652s-2.186 0.78642-3.3735 1.9875c-1.5222 1.5398-2.7603 3.7005-2.8362 6.0675-0.0857 2.7194 0.64044 4.3779 0.64044 4.3779s5.9839 0.60735 8.7656 1.6176c1.5047 0.5431 141.79 54.541 141.79 54.541s1.2556-0.0838 1.9076-1.4151c0.61707-1.2478-0.33677-2.3671-0.33677-2.3671zm-177.46-118.97c-0.87012 1.966-3.0542 5.7853-3.2255 6.3459-0.1713 0.55672 0.57814 2.0225 1.0765 2.0069 0.50416-0.01363 2.0907-3.4222 6.3965-4.6912 3.6518-1.0784 11.525-0.36402 13.844-0.09344 0.41267 0.04867 0.5431-0.1713 0.38542-0.61318-0.47497-1.3179-1.4074-4.3487-1.2322-7.4341 0.24527-4.119 6.1317-7.1303 6.27-7.5392 0.13237-0.40489-0.51974-1.7578-0.98887-2.0304-0.46913-0.2803-2.661-0.85066-3.2664-0.25111-0.78837 0.7728 0.36013 3.3248-3.4183 5.9878-4.8042 3.3793-14.901 2.4001-15.462 3.2041-0.64627 0.91879 0.49639 3.1417-0.37959 5.1079m19.455 5.9702c-0.0623-0.14015-0.14211-0.21412-0.22581-0.27058l-4.1444 0.81173s-6.6204-0.93826-9.0984-0.41657c-2.9705 0.62097-4.8315 2.5578-4.8315 2.5578l-1.0804 5.6256c0.0448 0.18688 0.1129 0.3679 0.26668 0.49054 0.20829 0.17714 0.51001 0.22386 0.77086 0.22191 1.1115-1.0589 2.7642-2.3788 4.6348-2.9958 3.4065-1.131 9.5442-0.55283 10.249-0.98303 0.54115-0.32897 2.5871-3.389 3.4961-4.7711 8e-3 -0.08954 0-0.17908-0.037-0.27058m6.8151 4.409 0.45746-3.0678c-0.0351-0.12458-0.10513-0.27252-0.23943-0.35428-0.14016-0.08565-0.25696-0.09928-0.36402-0.09928l-3.5759 2.3456-1.4463-0.42047-1.9408 2.7797s2.0887 2.8965 4.0022 2.661c1.3528-0.16546 3.533-1.3976 4.7069-2.1159 0.0798-0.15183 0.13821-0.31924 0.11096-0.50222-0.0331-0.19466-0.15767-0.36207-0.29198-0.50612zm-7.3055 5.8126s-2.406-2.6824-2.881-2.8011c-0.47692-0.12264-2.9958 0.97524-2.9958 0.97524s-3.5-0.28614-6.523 0.43409c-3.025 0.71829-6.2233 4.3663-4.3993 6.453 1.275 1.4657 9.5909-0.83314 9.5909-0.83314l2.2562 2.7427c0.0974 0.03314 0.29005 0.05839 0.39516 0.04285 0.2297-0.02138 0.34066-0.15183 0.50223-0.30756l0.93825-2.9803 3.4825-2.7136c0.0759-0.16157 0.12847-0.35428 0.0623-0.54115-0.0681-0.20439-0.25307-0.36596-0.42825-0.47108m36.668 74.577c0.16546-0.17713 0.21802-0.44187 0.22386-0.67157l-0.88765-3.1593c-0.0351-0.039-0.0526-0.0818-0.0993-0.1129-0.21414-0.1421-0.50418-0.1421-0.73971-0.11096l-0.84678 0.36208-2.003-6.4296s1.8162-3.4396 1.0745-4.4148c-0.37959-0.50223-2.7953-0.20439-2.7953-0.20439s-1.6799 6.4452-2.9803 9.8984c-0.63265 1.676-2.1412 4.5376-2.1412 4.5376l0.36791 2.2581c0.0603 0.0838 0.12263 0.15767 0.21413 0.21412 0.14403 0.0739 0.30561 0.0876 0.46718 0.0818 0.98108-0.60345 3.0172-1.7578 4.409-1.9291 1.4093-0.17324 4.1871-0.17714 5.4953-0.17324 0.0857-0.0312 0.17325-0.0759 0.24138-0.146m46.879 30.669c-3.5954 0.44187-5.542 5.8437-5.542 5.8437s2.6259 2.0926 0.52364 9.4293c-2.1004 7.3387-13.751 17.762-13.751 17.762l-2.3008 7.8486c0.072 0.1927 0.1713 0.3971 0.36985 0.51195 0.2044 0.12458 0.46525 0.12847 0.69884 0.0993 2.077-1.785 5.7814-5.2286 9.1431-9.6901 4.2299-5.614 5.1176-8.2964 5.1176-8.2964l2.4313-0.77475s-0.0935 3.1048 0.78448 3.1107c0.87985 0.0155 4.7419-3.6012 4.7419-3.6012s1.9037-4.3876 2.7408-7.0914c1.0862-3.5155 0.68326-10.494 0.68326-10.494s2.3262-3.8562 2.1646-4.2611c-0.16545-0.40294-4.2144-0.83703-7.8058-0.3971m-15.98 25.485c3.2274-1.6857 8.0472-12.147 8.127-12.898 0.0818-0.76112-1.4424-4.7964-1.2964-5.4115 0.14793-0.61707 5.2519-9.7369 5.6198-9.9452 0.65795-0.38348 10.804 0.24916 11.492-0.0312 0.68714-0.27252 3.6265-5.4233-1.6818-6.7001-2.2386-0.53921-10.619 0.76501-13.739 3.4474-5.2324 4.5083-7.216 16.337-7.216 16.337s-0.0876 9.984-0.40295 10.572c-0.3134 0.59175-4.3935 4.2241-4.3935 4.2241s0.26279 2.0868 3.4903 0.4049m18.689 3.3657c-0.29004-0.58787-8.0434 1.604-8.3256 2.2191-0.2803 0.61901 1.5709 2.6123 1.6137 3.208 0.0409 0.58982-5.0105 8.2574-5.0105 8.2574s-1.314 5.6646-1.9505 5.9001c-0.63265 0.23555-1.8046-4.1112-1.8046-4.1112l2.0089-5.9663c-0.0467-0.15377-0.11679-0.3056-0.25305-0.41072-0.15573-0.12459-0.36012-0.16741-0.56062-0.18298-2.7681 2.3573-8.8162 8.2185-9.7116 15.236-1.1718 9.1529 6.1473 10.626-0.70077 13.605-3.72 1.6137-4.3292-3.9126-4.3779-7.2219-0.0896-0.0993-0.19271-0.18688-0.32313-0.24139-0.19855-0.0759-0.42241-0.0467-0.63264 0-1.5183 3.21-4.2047 9.1646-3.7667 10.389 0.6015 1.6935 3.424 7.876 13.495 2.9121 10.074-4.9657 10.222-9.1471 11.146-13.221 0.92268-4.08 2.4098-14.09 4.9249-19.2 2.5208-5.1176 4.52-10.591 4.228-11.172m-11.43-45.12c-0.80783-2.9763-3.5778-5.5575-5.0885-6.7897-0.15962-0.0273-0.32702-0.0273-0.47691 0.0467-0.18493 0.0838-0.31536 0.25695-0.41462 0.43409l1.676 16.581c0.0798 0.10513 0.18298 0.19078 0.31145 0.24139 0.24527 0.0993 0.53921 0.0487 0.77475-0.0312l3.3793-3.936s0.96162-2.3768-0.16157-6.5464m-35.247-8.8298c-6e-3 -0.18298-0.037-0.36986-0.16157-0.52169-0.0993-0.12653-0.23553-0.21024-0.38348-0.27058l-7.3834-0.11484-3.7822 1.3412 0.95383 6.1921s1.7559 1.0551 1.8531 1.4132c0.0954 0.35623-1.2244 1.9836-1.2244 1.9836l0.22387 7.0545s1.9408 6e-3 1.9193 0.63654c-0.0312 0.62875-1.5066 2.7466-1.5066 2.7466l0.0155 5.3628 2.1432-0.23359s0 1.1329-2.0868 3.3229c-2.0926 2.186-6.8052 3.9867-6.8052 3.9867l-1.4405 10.432c0.0798 0.15183 0.24527 0.40294 0.52753 0.46523 0.19466 0.037 0.34065 6e-3 0.46524-0.0429 1.0103-1.565 2.5675-3.7822 4.5861-6.0052 3.8154-4.1851 9.0536-5.6373 9.0536-5.6373s0.0837-5.5886 1.0901-7.8564c1.0122-2.2717 3.4707-3.3462 3.7628-4.3254 0.28614-0.97719-0.94994-2.6727-2.5832-7.1926-1.3412-3.7316 0.19272-10.5 0.76307-12.737m-18.15 60.128c-0.62097 4.993-0.75723 15.869-0.75723 15.869l-1.5631 5.6043 4.699 0.82535 1.4211-2.4352s-0.46523-1.6021-0.13626-2.153c0.31729-0.55088 1.8259-0.53531 1.8259-0.53531l1.1057-1.6644s-0.23749-2.8304 0.24721-3.2041c0.4847-0.36596 3.2975 0.51584 3.2975 0.51584l2.5092-1.2536s2.0186-12.919 6.0908-23.789c4.0781-10.874 7.9305-19.912 7.9305-19.912s-4.6874-3.1126-6.8617-0.82536c-1.7578 1.8473-1.2983 7.4632-1.2983 7.4632s-8.0414 2.7914-10.94 6.3498c-5.5341 6.778-6.9493 14.151-7.5703 19.145m28.126-35.358c0.15767-0.16742 0.21413-0.41073 0.23943-0.63264l-0.65211-4.0275-2.5403-15.421-4.6076 1.3412s-0.59566 3.9729-0.46525 5.0417c0.13043 1.0648 3.6207 7.656 3.8503 8.4112 0.23165 0.75138-1.3821 2.4936-1.3354 3.2061 0.037 0.52948 3.2664 1.5943 5.0164 2.3107 0.1752-0.0312 0.36012-0.0838 0.49444-0.22969m1.3938-12.538s7.1538 1.131 8.3898 0.93242c1.3101-0.21218 7.0194-3.4766 7.0194-3.4766l-1.1641-7.691-3.9808-0.16546-3.3774 1.2789-4.9833-0.19856-2.9277 0.95968zm8.6934 4.4227c-0.90323 0.12069-7.5625-1.0901-7.9908-0.58008-0.42241 0.51195 0.0993 2.1821 0.0993 2.1821l1.6079 5.8126s5.7736-2.515 6.6749-2.6902c0.90127-0.1674 7.1965 0.31729 7.1965 0.31729s0.2044-7.2589-0.41462-7.4866c-0.62096-0.21997-6.0734 2.295-7.1732 2.4449m4.9112 18.312c0.26085-0.0312 0.49054-0.22386 0.65601-0.41073 0.97524-2.223 3.132-7.3951 2.5772-8.0998-0.69882-0.89155-5.9779-1.6857-7.1887-1.5495-1.4211 0.1674-6.085 2.513-6.2778 3.0736-0.19466 0.56646 2.9568 4.6757 2.9568 4.6757l4.2222-0.95577 2.6298 3.1885c0.13431 0.0584 0.27641 0.10319 0.42436 0.0778m-19.573 53.605s5.0923 8.3918 2.9198 12.719c-2.1763 4.3215-10.656 2.4839-11.94 1.9134-1.2808-0.57424-8.4872-9.9977-9.1353-10.153-0.67742-0.16158-8.7188 4.0158-9.221 3.8406-0.51001-0.17325-1.0745-1.4502-3.0406-4.5861-1.9641-3.1418 2.1588-7.9732 2.8168-8.236 0.65794-0.26474 7.1342 1.7656 7.8545 1.5553 0.72024-0.20438 5.3589-8.1406 5.3589-8.1406s10.87-6.5639 16.77-0.74944c5.8749 5.795-2.3826 11.837-2.3826 11.837m-21.204 2.1159-6.4277-1.5495 0.4886 3.025 2.6785 0.52169zm20.342 2.5306c-0.1168-0.30951-1.458-0.56257-1.7324-0.33676-0.27836 0.21997-0.37764 2.7155-3.0055 3.1865-2.6298 0.47692-5.396-2.8713-5.396-2.8713s-2.5772-0.90323-2.7817-0.51779c-0.19271 0.36984 4.3467 6.7332 8.8395 6.4861 4.4986-0.25111 4.2008-5.6295 4.0761-5.9468m-2.1607-14.095c-5.1604-3.2508-10.375 3.9613-10.185 4.3779 0.19271 0.41657 2.6649-0.0974 2.6649-0.0974s3.3093-2.2931 5.1915-1.822c1.8804 0.46524 2.9861 2.5714 2.9861 2.5714s1.894 0.65211 2.186 0.4847c0.30368-0.16936 0.11875-3.646-2.844-5.5147m29.247 21.373c-0.20245-0.22969-0.547-0.30366-0.81952-0.33481-4.5706 1.2225-18.158 4.555-24.353 11.14-8.2535 8.7694-7.7124 21.925-7.7124 21.925l-3.679 3.718c-0.0545 0.2297-0.0778 0.51584 0.0642 0.74555 0.13625 0.23359 0.3971 0.36596 0.64043 0.45744l22.33-0.57424 13.735-36.356c0.0136-0.23554-0.0254-0.51584-0.2044-0.72024m-36.197 23.777c-0.66574 3.3033-12.779 22.787-15.399 27.676-2.622 4.884-1.6877 11.497-1.6877 11.497l2.4527 0.90127c0.15184 0.21024 0.30367 0.4847 0.28226 0.76306-3e-3 0.13627-0.0526 0.26085-0.12458 0.36597l-3.6907 1.9563c-0.1129 0.0194-0.21801 0.037-0.32313 0.0136-0.1129-0.0252-0.20246-0.0876-0.292-0.15573l-3.5467-6.1668-10.833-4.4421c-0.0954-0.0818-0.18299-0.16741-0.23554-0.29005-0.16742-0.36596 0.0194-0.78837 0.14015-1.0083l2.515-3.6985 7.9889-39.925 6.8696-11.854s5.1234-3.062 6.3907-2.6649c1.2673 0.39516 7.7007 9.8127 8.9738 10.35 1.2711 0.52363 4.4012-1.0667 4.9112-0.15573 0.51585 0.90906-3.72 13.533-4.3915 16.838m-6.922-9.5324c-1.1893-0.3426-8.0725 18.627-8.0725 18.627s-7.0797 11.611-7.5022 13.276c-0.42825 1.6546-1.7753 7.6502-0.70857 7.8312 1.0687 0.16935 2.9881-6.7683 2.9881-6.7683s7.3523-10.582 7.8915-12.252c0.547-1.6702 7.0174-20.243 5.4037-20.714m-28.882-152.05c6e-3 0 0.0155 0.0103 0.0194 0.0117l8e-3 -0.0117zm-7.2725-2.4352-4.3915 19.964c4.6406 0.86428 8.3724 4.4928 8.1115 9.3807-0.31534 6.0033-4.3837 9.622-9.8907 9.3359-3.4649-0.18688-6.8306-1.565-8.7149-3.8874 1.9076-0.61512 3.0659-2.3788 3.5409-4.629l1.8318-8.5982c-6.3206 1.5398-9.4877 7.5703-9.7972 13.436-0.41657 8.0063 5.215 12.801 12.238 13.166 12.715 0.66378 18.76-13.501 19.344-24.702 0.6521-12.357-4.4811-19.804-12.271-23.467m1.057 28.36c0.18493-3.6441-2.044-6.2155-5.8476-6.7722l-2.7408 12.386c0.60929 0.34065 1.3159 0.42241 1.8512 0.45355 3.9146 0.2044 6.5387-2.3359 6.7372-6.0675m35.357-47.471c-1.7014 8.0277-10.743 49.156-20.282 64.862-11.605 19.109-25.058 29.678-29.024 32.548-0.28616 0.14211-0.61513 0.26669-0.94604 0.22387-0.34455-0.0409-0.62487-0.24332-0.8351-0.46329-2.044-3.4922-8.7169-15.576-11.321-28.821-3.099-15.728-3.5448-23.174-3.5448-23.174s12.283-9.3884 15.014-12.382c2.881-3.1555 5.6256-10.321-0.50806-14.704-4.4713-3.1885-8.6253-0.98692-10.654 0.3718-0.13042 0.0312-0.28226 0.039-0.47887-0.0526-0.26278-0.11485-0.38153-0.40685-0.42825-0.57036l2.0225-14.715s9.0692-6.8617 20.653-7.5255c15.399-0.88764 34.457 1.9992 39.399 2.8069 0.21802 0.14015 0.42241 0.30951 0.58398 0.52753 0.22386 0.29588 0.31729 0.6891 0.34844 1.0687m-30.487 2.0828c-1.2011-0.06616-2.4917-0.04091-3.7472 0.07199-6.6262 0.53921-12.575 3.5252-12.903 9.7972-0.0915 1.824 0.24527 3.7609 1.9699 4.8684 1.3528-0.1927 3.2119-1.7014 3.3209-3.6965 0.0136-0.27058-0.0155-0.58398-0.0857-0.89739-0.2803 0.16741-0.54699 0.19856-0.77084 0.18494-0.84482-0.0448-1.0551-1.2186-1.0006-2.1978 0.18103-3.3715 2.5033-5.2596 3.9263-5.1838 0.98108 0.05451 1.4015 0.47108 1.347 1.5865-0.0254 0.44381-0.13627 0.92657-0.26864 1.5884l-6.7683 30.63c-7.6968 0.43994-13.896 5.6413-14.321 13.73-0.46329 8.8492 7.3328 15.853 16.223 16.318 12.886 0.67742 23.39-10.942 24.098-24.41 0.56258-10.673-2.8226-16.61-8.0608-21.491-0.0857-0.26668-0.17324-0.63459-0.037-0.93242 0.1129-0.23553 0.33677-0.37179 0.5509-0.45939 3.9944-0.22971 8.1932-3.0309 8.4715-8.3178 0.39126-7.4632-4.917-10.823-11.945-11.189m0.63654 2.3067c-2.3087-0.11874-3.4084 0.40295-3.9302 2.7349l-2.1121 9.6959c1.2653 1.4035 3.1029 2.7894 5.6392 2.9258 4.7088 0.24722 7.1965-3.8134 7.4925-7.7183 0.29978-4.0392-1.8843-7.3659-7.0894-7.6384m-27.997 14.748c-0.87013 0.16156-2.1004 0.88764-2.7758 1.4035-0.0506 0.13627-0.0817 0.29784-0.0292 0.4594 0.0623 0.19076 0.16156 0.29782 0.2589 0.37374 2.3534-0.41074 4.7692 0.52753 6.1726 3.21 2.8556 5.4388-16.577 17.878-16.577 17.878l1.2944 10.432 2.223 7.436c0.2044 0.0642 0.43799 0.0993 0.6638 0.0155 0.15183-0.0564 0.23943-0.13043 0.33287-0.20829l-2.3631-16.688s13.63-9.9452 15.637-12.33c6.2642-7.4223-0.95772-12.687-4.8373-11.981m43.182 60.969 1.6585-8.6993c-0.0701-0.12847-0.16157-0.25111-0.31535-0.3134-0.0915-0.037-0.16741-0.0428-0.24527-0.0506l-4.699 6.1201-2.4469 9.4195-7.2102 13.206c0.0136 0.16157 0.0526 0.3718 0.21217 0.51195 0.15183 0.14211 0.29199 0.17909 0.42241 0.19466l5.7717-2.3126 5.2986-7.3309-0.98108-1.1544 3.9438-8.857zm5.9663 28.86c-0.25111-0.30561-0.71245-0.39126-1.0414-0.41657-4.705 1.9621-19.665 8.7733-19.456 15.977 0.2297 7.5625 8.6721 11.68 12.283 13.094 0.21413-0.037 0.44383-0.11486 0.61123-0.30368 0.12848-0.1421 0.20246-0.2803 0.25111-0.41657-1.3276-2.4333-3.7861-7.7708-2.2405-11.499 2.1082-5.1059 8.6799-10.029 8.6799-10.029l1.057-6.124c-0.037-0.0993-0.0623-0.19854-0.14405-0.2842m-36.22-0.64043c-0.0175-0.34065-0.27836-0.6268-0.49054-0.81951l-6.34-3.0932-5.0923-7.6774c-0.17909-0.13431-0.43993-0.28226-0.7689-0.27446-0.292 0.0103-0.55868 0.14015-0.75528 0.27446-3.1146 3.6518-13.254 16.281-9.4255 21.19 3.537 4.5395 18.807-6.2291 22.732-9.1217 0.0838-0.146 0.15377-0.30172 0.14015-0.47886m-17.867 13.739c-0.45745 0.32508-1.1757 3.2994-1.1757 3.2994l21.826 5.8378s0.88182-0.51584 0.90128-0.94409c0.0117-0.4341-2.2834-5.0631-2.3223-5.8223-0.0409-0.75334 2.9062-9.9568 2.8304-10.708-0.0739-0.75138-0.63847-0.91879-0.63847-0.91879l-13.804 7.9829s-7.1635 0.94606-7.617 1.2731m40.738 21.367-4.0236 9.9588s-17.952-8.0492-28.537-10.698c-10.582-2.6454-35.003-8.7208-47.83-7.144-12.828 1.5748-25.614 6.6943-25.614 6.6943l-8.8376-1.2847 1.1174-3.2917-1.0667-4.0996c0.0545-0.1168 0.1168-0.23555 0.22386-0.35624 0.12653-0.15183 0.29004-0.24527 0.45939-0.3134l3.0736 0.49249s9.6862-5.1312 26.395-7.1829c16.713-2.0537 32.889 1.1485 32.889 1.1485s0.36401 5.9274 0.97914 5.8573c0.61317-0.0681 4.01-5.2558 4.01-5.2558s14.724 3.3481 25.792 6.7216c11.062 3.3754 20.966 8.7538 20.966 8.7538m-104.8-6.6671c-0.17129-1.3996-1.4463-2.3943-2.842-2.223-1.3957 0.17519-2.3962 1.4483-2.223 2.844 0.17519 1.3976 1.4483 2.3904 2.844 2.223 1.3976-0.17324 2.3924-1.4502 2.2211-2.844m12.056-3.8154c-0.16936-1.3938-1.4463-2.3943-2.844-2.2191-1.3976 0.16935-2.3904 1.4463-2.223 2.842 0.1713 1.3957 1.4463 2.3924 2.844 2.2211 1.3976-0.1713 2.3982-1.4502 2.223-2.844m12.978-2.4682c-0.17325-1.3976-1.4522-2.3982-2.8459-2.223-1.3957 0.16741-2.3904 1.4463-2.2211 2.8459 0.1752 1.3957 1.4483 2.3885 2.844 2.2172 1.3938-0.16935 2.3904-1.4424 2.223-2.8401m12.863-0.22386c-0.16935-1.3938-1.4463-2.3904-2.8401-2.2172-1.3996 0.1713-2.3904 1.4463-2.223 2.844 0.17325 1.3938 1.4463 2.3904 2.844 2.2172 1.3976-0.1713 2.3904-1.4463 2.2191-2.844m12.02 1.4405c-0.16741-1.3976-1.4483-2.3962-2.842-2.223-1.3996 0.17324-2.3962 1.4463-2.223 2.844 0.1713 1.3976 1.4463 2.3904 2.8478 2.2211 1.3938-0.17131 2.3904-1.4444 2.2172-2.842m14.629 1.4444c-0.32313-0.59956-0.86818-1.0336-1.528-1.2205-0.6521-0.18688-1.3412-0.11486-1.9388 0.21801-0.5976 0.32897-1.0278 0.86818-1.2205 1.5261-0.38542 1.3509 0.3971 2.7642 1.7441 3.1555 0.65796 0.19271 1.347 0.11484 1.9446-0.21801 0.59762-0.32899 1.0298-0.8682 1.2166-1.5262 0.19272-0.6521 0.11096-1.3431-0.21802-1.9349m11.771 3.0835c-0.33287-0.59761-0.87207-1.0317-1.528-1.2186-0.65405-0.18882-1.3451-0.11095-1.9369 0.21802-0.59955 0.32897-1.0336 0.87207-1.2205 1.528-0.19272 0.65212-0.11096 1.3431 0.21801 1.9427 0.32898 0.59565 0.86818 1.0278 1.5203 1.2108 1.3607 0.39127 2.7758-0.39126 3.1613-1.7422 0.19271-0.65405 0.11096-1.3431-0.21413-1.9388m11.82 3.539c-0.32702-0.60345-0.87013-1.0336-1.5241-1.2244-1.3548-0.39127-2.77 0.39127-3.1574 1.7402-0.19272 0.65795-0.11486 1.3509 0.21606 1.9466 0.32898 0.59565 0.87013 1.0278 1.5262 1.2166 1.3528 0.38738 2.7681-0.39515 3.1574-1.748 0.18881-0.64821 0.11484-1.3354-0.21802-1.931m12.147 6.3517c0.19078-0.65211 0.1168-1.3412-0.21801-1.9369-0.32508-0.6015-0.87013-1.0317-1.5222-1.2166-0.6521-0.19271-1.347-0.11873-1.9369 0.21024-0.59565 0.33287-1.0297 0.87596-1.2225 1.528-0.39126 1.3528 0.39127 2.77 1.7402 3.1632 0.66184 0.19077 1.3451 0.10901 1.9408-0.21996 0.59955-0.32897 1.0317-0.87013 1.2186-1.528m9.2015 4.7886c-0.16741-0.12458-0.36986-0.2297-0.6015-0.21802-0.21802 0.0214-0.41073 0.14209-0.57813 0.28226l-7.0039 23.735 4.8218 1.1874 6.0598-17.648zm-8.6934 27.408-3.9496 10.562 0.96356 2.8226c0.15573 0.18882 0.35429 0.35623 0.6054 0.42435 0.14599 0.0409 0.30172 0.037 0.4555 0.0155l2.6435-1.419 3.2684-11.08zm3.9555 42.498-3.3832-1.7578c-0.14405-0.0116-0.28225 3e-3 -0.41657 0.0662-0.1674 0.0798-0.29199 0.22581-0.39127 0.38738l-1.5398 12.077 4.6134 1.4541s2.3223-2.7136 2.5266-4.0431c0.21218-1.3159-1.4093-8.1835-1.4093-8.1835m4.5083 3.428c-0.12459-3e-3 -0.24139 0.0117-0.35624 0.0681-0.16741 0.0739-0.29004 0.21607-0.39516 0.3718-0.0584 1.7111-0.18882 5.2734-0.30366 5.7327-0.11875 0.4594-1.1426 2.2834-1.7908 3.1477-0.0293 0.1713-0.0233 0.35428 0.039 0.53143 0.0467 0.13237 0.13042 0.24721 0.22776 0.36012 1.349 0.81367 4.2631 2.3904 5.8826 0.71633 4.6018-4.7496-1.205-9.4624-3.3033-10.928m-27.72-7.0116c-0.16157-0.29199-0.47107-0.47691-0.76306-0.60733l-8.0492-0.31729c-0.25305 0.0935-0.51389 0.25694-0.65794 0.52751-0.14211 0.25501-0.14795 0.58009-0.10902 0.87013l4.5803 7.2764c0.0778 0.0214 0.15183 0.0409 0.22969 0.0448 0.3173 0.0175 0.61902-0.13821 0.87012-0.31146l3.9944-7.072c-0.0117-0.13626-0.0233-0.28031-0.0954-0.41073m-8.7966 7.5917c0.14599-0.20245 0.16546-0.46913 0.15377-0.70467l-5.1546-7.2277s-10.023-0.15573-14.158 0.8818c-2.2288 0.56452-4.627 1.5728-6.3771 2.3904-0.13821 0.2044-0.26864 0.4847-0.20246 0.7728 0.0681 0.34455 0.39322 0.59955 0.63071 0.75528l14.405 1.3412 10.284 2.0789c0.16156-0.0623 0.31729-0.13627 0.41851-0.2881m-160.73-282.51s-1.3976-0.67352-3.5311-2.0926c-1.2537-0.8273-1.4171-5.1857-1.4171-5.1857l-1.3606-0.61513s-2.1666 1.7947-5.943 1.4756c-6.8248-0.57424-24.274-6.2603-24.274-6.2603l-0.60734 1.5845s15.349 9.0808 20.157 13.83c2.3904 2.3671 3.755 5.6957 3.755 5.6957l1.4638 0.43993s2.7-1.9778 3.79-2.1666c3.1107-0.53531 5.322 0.40879 5.322 0.40879zm1.6954 2.4274-1.4775 4.1034 2.6065 1.0434 1.6566-4.0041zm145.48 57.206-140.72-55.196-1.4151 4.0216 141.24 56.809zm-92.549 17.924c0.0759-0.21218 0.0253-0.44771-0.0487-0.6521l-4.1677-3.7881-0.5178 0.28614 0.2628 1.7695-2.5442 2.0614 0.27836 0.54505 6.5756 0.0103c0.0681-0.072 0.13042-0.14015 0.16157-0.23165m11.613 44.007c-1.5573 2.9277-3.1749 9.8362-3.1749 9.8362l-4.849 13.375s-1.6838 5.1604-6.8462 8.4676c-5.8514 3.7413-24.41 0.86818-24.41 0.86818l3.0152-41.246-3.5642-6.2349-28.924-8.8044-0.35623-1.7578 28.802 0.21022 1.386-2.805 1.2634-0.74944 3.6693 1.6546s2.1452-1.5962 2.0205-2.6201c-0.1168-0.98109-4.9327-2.0614-4.9327-2.0614-0.20246-1.2477-0.38738-3.1729 0.0194-5.2792 0.83508-4.3526 4.4986-10.599 4.4986-10.599s0.67547-0.0739 0.8565 0.33481c0.37958 0.91295 0.93826 2.6532 2.1821 3.6265 1.8201 1.4172 4.2319 2.0809 4.2319 2.0809s0.18882 3.1301 0.99471 3.3033c0.80589 0.1713 2.6007-3.1982 2.6007-3.1982l12.283-0.13626s11.63 3.2294 14.308 10.57c5.756 15.746-3.5155 28.232-5.0728 31.165m-24.51-18.771-6.8248-1.2186s-0.14015 2.4566-2.9121 1.386c-2.1705-0.83898-0.69299-5.6821-0.69299-5.6821l-1.6351-0.7144s-3.9438 5.0456-1.0784 9.731c4.0138 6.5581 10.286 2.5014 10.286 2.5014zm16.449-3.2294-2.6707-3.862-7.5061 52.224 1.8064 0.90516zm1.8746-15.534-1.859-0.80394-2.3105 8.5514 3.5642 3.0795zm12.556 58.423c0.16934-0.27836 0.21801-0.52363 0.22385-0.73776l-3.5759-3.2488 1.9563-9.6746c-0.0778-0.11679-0.15573-0.2258-0.28031-0.3095-0.11679-0.0818-0.2297-0.13821-0.34066-0.18104l-6.9493 8.8921 0.65794 5.3726 8.0861 0.11096c0.0778-0.0681 0.16156-0.12653 0.22191-0.22386m79.497 2.1433c-0.15573-0.037-0.32314-0.0136-0.48471 0.0273-1.5144 0.91685-5.3434 3.2606-6.4919 4.4032-1.456 1.4521-3.6168 6.7022-5.1896 7.9889-1.24 1.02-8.2244 4.5921-10.971 6.6962-2.8265 2.1646-5.1292 6.3517-10.364 9.5384-6.8987 4.191-17.418 6.6729-23.772 3.8212-3.3268-1.4872-3.4358-6.4763-3.4358-6.4763l-2.5617-0.16157-5.8126 14.892 1.1544 0.75722s14.761-5.5575 30.894-6.1356c15.164-0.53921 25.775 1.4657 25.775 1.4657l2.2327-3.9983s-3.391-3.9399 0.49638-12.221c3.8854-8.2847 10.957-15.055 10.957-15.055l-2.044-5.3065c-0.10512-0.10513-0.2258-0.19854-0.38347-0.23554m-13.346-21.477c-0.93631 0.94022-3.4046 3.3793-6.9474 6.6671-0.47302-0.55089-1.1992-0.86428-1.9757-0.77085-1.2283 0.15183-2.1043 1.2731-1.9544 2.4955 0.0642 0.51001 0.29783 0.95774 0.63265 1.2925-2.404 2.1724-5.1351 4.5725-8.0979 7.072-0.40683-0.83119-1.3043-1.3626-2.2795-1.2419-1.2225 0.14989-2.0985 1.2711-1.9466 2.4975 0.0759 0.63654 0.41463 1.166 0.88569 1.5202-3.1555 2.5832-6.5172 5.2169-9.9919 7.7747-1.0745 0.78838-2.1354 1.5553-3.1729 2.2969-0.42241-0.7942-1.3042-1.2906-2.2483-1.1757-1.2264 0.15183-2.1004 1.2692-1.9485 2.4955 0.0564 0.47497 0.26085 0.89738 0.56451 1.2302-5.5984 3.866-9.5694 6.3984-11.518 7.6092-0.25305 0.0993-0.54699 0.17519-0.81951 0.0935-0.25501-0.0739-0.43215-0.28616-0.55868-0.49054-0.91683-2.8926-4.0431-10.776-4.1423-14.034-0.13043-3.9807 4.191-33.11 4.191-33.11s-0.50028-7.7493-1.0375-9.1373c-0.53142-1.3879-3.3248-5.6704-3.3248-5.6704l1.4444-16.332-3.1555-7.3172c0.0312-0.21803 0.0974-0.44772 0.25501-0.61123 0.0351-0.0351 0.0876-0.0467 0.12458-0.0778 2.918-0.31146 24.22-4.9308 37.635 8.6292 4.664 4.7088 10.889 15.548 10.889 15.548l3.132 12.95 5.4212 8.7675s0.48859 0.55089-0.0564 1.0278m-26.098-37.205c0.14209 1.1641 1.201 1.9914 2.3631 1.8473 1.1641-0.1421 1.9894-1.2011 1.8473-2.3612-0.14405-1.1621-1.203-1.9875-2.3671-1.8473-1.1602 0.1421-1.9856 1.2011-1.8434 2.3613m-2.6571 4.5376c-1.2244 0.15183-2.1004 1.2692-1.9505 2.4955 0.14795 1.2322 1.2731 2.1023 2.4956 1.9524 1.2302-0.14795 2.1062-1.2653 1.9544-2.4994-0.15377-1.2263-1.2711-2.1023-2.4994-1.9485m-4.956-9.184c0.1421 1.1641 1.2011 1.9894 2.3652 1.8473 1.1621-0.14405 1.9875-1.203 1.8454-2.3671-0.14405-1.1602-1.2011-1.9875-2.3631-1.8434-1.1641 0.14209-1.9875 1.1971-1.8473 2.3631m0.47886 25.122c-1.2302 0.15183-2.1024 1.2711-1.9505 2.4994 0.14989 1.2302 1.2673 2.0985 2.4897 1.9505 1.2361-0.15184 2.1121-1.2673 1.9563-2.4955-0.14988-1.2302-1.2673-2.1062-2.4956-1.9544m0.2842-8.4853c-0.15183-1.2225-1.2653-2.0985-2.5014-1.9505-1.2302 0.15378-2.0985 1.2711-1.9505 2.4975 0.15184 1.2302 1.2672 2.1043 2.4955 1.9524 1.2341-0.14793 2.1062-1.2692 1.9563-2.4994m-5.9721-9.9529c0.1421 1.1602 1.1971 1.9875 2.3613 1.8434 1.1641-0.14211 1.9914-1.205 1.8473-2.3652-0.146-1.1621-1.2011-1.9875-2.3652-1.8453-1.1621 0.14405-1.9875 1.2011-1.8434 2.367m-4.1248-9.1607c0.10707 0.84482 0.87403 1.4483 1.7247 1.3451 0.84677-0.10319 1.4483-0.87596 1.3431-1.7227-0.0993-0.84482-0.86817-1.4463-1.7188-1.3451-0.85066 0.10513-1.4502 0.87596-1.349 1.7227m-0.45549 32.502c0.14015 1.1602 1.201 1.9875 2.3631 1.8434 1.1602-0.1421 1.9875-1.2011 1.8473-2.3652-0.146-1.1621-1.2011-1.9875-2.3631-1.8454-1.168 0.14405-1.9933 1.1992-1.8473 2.367m0.46523-6.6262c1.1641-0.14211 1.9914-1.1992 1.8454-2.3631-0.14015-1.1641-1.1953-1.9894-2.3631-1.8473-1.1563 0.14405-1.9914 1.203-1.8454 2.367 0.14015 1.1602 1.203 1.9856 2.3631 1.8434m-3.8095-19.75c0.14405 1.1582 1.1953 1.9914 2.3592 1.8473 1.168-0.14211 1.9933-1.205 1.8512-2.3652-0.1421-1.1621-1.1992-1.9875-2.3652-1.8434-1.1621 0.14211-1.9875 1.1971-1.8454 2.3613m0.14599 8.7656c0.14017 1.1621 1.2011 1.9894 2.369 1.8473 1.1621-0.14599 1.9836-1.2011 1.8376-2.3631-0.14015-1.1641-1.1953-1.9894-2.3553-1.8473-1.1621 0.14405-1.9972 1.203-1.8512 2.3631m-5.3686-13.791c0.10708 0.84677 0.87598 1.4521 1.7247 1.347 0.84287-0.10513 1.4463-0.87596 1.3431-1.7227-0.10513-0.84676-0.87598-1.4502-1.7188-1.3509-0.85067 0.10513-1.4541 0.8818-1.349 1.7266m-0.61317 7.2258c0.10124 0.84288 0.87208 1.4463 1.7188 1.3431 0.85067-0.10513 1.4541-0.87598 1.347-1.7189-0.0993-0.85066-0.87402-1.4502-1.7227-1.349-0.84676 0.10707-1.4502 0.87597-1.3431 1.7247m2.8614 24.546c0.0993 0.84677 0.87013 1.4483 1.7208 1.3431 0.84482-0.10513 1.4521-0.87596 1.347-1.7189-0.10512-0.85066-0.87596-1.4541-1.7266-1.349-0.84678 0.10707-1.4463 0.87596-1.3412 1.7247m0.0506-6.1395c0.84093-0.10513 1.4502-0.87402 1.3431-1.7227-0.10513-0.84677-0.87792-1.4502-1.7227-1.3431-0.85066 0.10124-1.4502 0.87402-1.347 1.7189 0.10513 0.85066 0.87597 1.4541 1.7266 1.347m-2.1997-8.4385c0.85066-0.10124 1.4541-0.87597 1.349-1.7189-0.0993-0.84482-0.87597-1.4483-1.7208-1.3451-0.84677 0.10319-1.4463 0.87596-1.347 1.7169 0.10513 0.85066 0.87596 1.4521 1.7188 1.347m1.2205 50.882c1.1641-0.14209 1.9914-1.205 1.8473-2.3652-0.14211-1.1621-1.1972-1.9875-2.3652-1.8454-1.1621 0.14211-1.9875 1.1992-1.8434 2.3631 0.1421 1.1582 1.2011 1.9894 2.3612 1.8473m4.3 6.5387c-0.14601-1.1621-1.2011-1.9894-2.3652-1.8473-1.1621 0.1421-1.9875 1.2011-1.8473 2.3631 0.14599 1.1641 1.2011 1.9894 2.3631 1.8473 1.166-0.14404 1.9894-1.2011 1.8492-2.3631m-1.8259-18.132c-0.1421-1.1641-1.1971-1.9894-2.3612-1.8473-1.1621 0.14405-1.9914 1.1992-1.8454 2.3631 0.14015 1.1621 1.2011 1.9894 2.3631 1.8473 1.1621-0.14211 1.9875-1.2011 1.8434-2.3631m-0.32118-14.3c0.85066-0.10707 1.4521-0.87597 1.347-1.7266-0.10513-0.84482-0.87598-1.4463-1.7208-1.3412-0.84482 0.10318-1.4522 0.87596-1.347 1.7189 0.10513 0.85066 0.87598 1.4541 1.7208 1.349m2.3145 8.5943c1.1621-0.14405 1.9914-1.203 1.8454-2.3671-0.14016-1.1602-1.1992-1.9875-2.3592-1.8434-1.1641 0.14209-1.9933 1.1971-1.8473 2.3631 0.13822 1.1641 1.2011 1.9894 2.3613 1.8473m6.2485 17.091c-0.14989-1.2263-1.2731-2.1023-2.4975-1.9524-1.2283 0.14794-2.1043 1.2731-1.9524 2.4955 0.15183 1.2302 1.2692 2.1062 2.4956 1.9563 1.2264-0.15183 2.1023-1.2731 1.9544-2.4994m1.1388-9.5442c-0.15183-1.2263-1.2673-2.0985-2.4994-1.9466-1.2302 0.14793-2.0985 1.2673-1.9466 2.4897 0.15184 1.2322 1.2673 2.1082 2.4936 1.9563 1.2283-0.14989 2.1043-1.2692 1.9524-2.4994m-0.91685-18.124c-0.14209-1.166-1.1971-1.9875-2.3612-1.8453-1.1621 0.14211-1.9914 1.2011-1.8473 2.3631 0.14211 1.1602 1.1972 1.9875 2.3652 1.8434 1.1621-0.14209 1.9875-1.2011 1.8434-2.3612m3.8231 11.024c1.2322-0.15378 2.1043-1.2731 1.9524-2.4994-0.14795-1.2263-1.2673-2.1004-2.4956-1.9524-1.2302 0.15184-2.1062 1.2731-1.9544 2.4955 0.15378 1.2302 1.2711 2.1062 2.4975 1.9563m5.7814 13.928c-0.15184-1.2283-1.2673-2.0985-2.4975-1.9485-1.2322 0.14794-2.1004 1.2653-1.9485 2.4955 0.15183 1.2302 1.2673 2.1023 2.4917 1.9505 1.2302-0.14989 2.1062-1.2673 1.9544-2.4975m-2.7291-23.906c1.2283-0.15183 2.0985-1.2692 1.9485-2.5033-0.14795-1.2263-1.2692-2.0985-2.4994-1.9485-1.2263 0.14795-2.1004 1.2692-1.9485 2.4955 0.15183 1.2322 1.2692 2.1043 2.4994 1.9563m6.5561 14.132c-0.14793-1.2263-1.2653-2.1023-2.5014-1.9485-1.2244 0.14794-2.0965 1.2692-1.9446 2.4955 0.14989 1.2302 1.2673 2.1062 2.4897 1.9563 1.2341-0.15573 2.1062-1.2731 1.9563-2.5033m2.8517-10.809c-0.14989-1.2302-1.2673-2.1062-2.5033-1.9505-1.2225 0.14989-2.0985 1.2692-1.9505 2.4955 0.15573 1.2322 1.2731 2.1062 2.4994 1.9544 1.2341-0.15379 2.1062-1.2711 1.9544-2.4994m0.73581-10.399c-0.15378-1.2263-1.2711-2.1023-2.4994-1.9524-1.2263 0.15183-2.1004 1.2692-1.9505 2.4994 0.14794 1.2263 1.2692 2.1023 2.4955 1.9524 1.2302-0.15183 2.1062-1.2731 1.9544-2.4994m0.18298-12.048c-0.15379-1.2263-1.2731-2.0985-2.5033-1.9466-1.2264 0.14989-2.0985 1.2673-1.9505 2.4936 0.15379 1.2322 1.2673 2.1082 2.4975 1.9563 1.2283-0.15184 2.1043-1.2692 1.9563-2.5033m7.6987 27.88c-0.15573-1.2302-1.2731-2.1043-2.5014-1.9524-1.2302 0.14794-2.1004 1.2692-1.9505 2.4994 0.15183 1.2225 1.2673 2.0985 2.4956 1.9485 1.2302-0.15183 2.1062-1.2692 1.9563-2.4955m0.51001-11.382c-0.14989-1.2263-1.2673-2.1062-2.4994-1.9505-1.2264 0.14989-2.0985 1.2673-1.9466 2.4955 0.14794 1.2302 1.2673 2.1062 2.4956 1.9544 1.2302-0.15379 2.0985-1.2711 1.9505-2.4994m-1.0998-10.582c-0.14793-1.2244-1.2673-2.0985-2.4956-1.9505-1.2322 0.15184-2.1043 1.2731-1.9505 2.4955 0.14989 1.2341 1.2673 2.1062 2.4956 1.9563 1.2302-0.15378 2.1023-1.2692 1.9505-2.5014m-0.6891-13.796c-0.14793-1.2263-1.2634-2.1004-2.4955-1.9485-1.2244 0.15184-2.1004 1.2692-1.9505 2.4955 0.14992 1.2263 1.2673 2.1023 2.4994 1.9524 1.2264-0.15573 2.0985-1.2731 1.9466-2.4994m3.4162 9.1821c1.1602-0.14405 1.9875-1.1992 1.8473-2.3613-0.14599-1.1641-1.203-1.9933-2.3631-1.8492-1.168 0.1421-1.9894 1.205-1.8473 2.3652 0.14599 1.1621 1.2011 1.9875 2.3631 1.8454m3.3462 11.81c1.2302-0.14795 2.1024-1.2673 1.9505-2.4955-0.14989-1.2302-1.2673-2.1062-2.4975-1.9544-1.2322 0.15378-2.1004 1.2711-1.9485 2.4994 0.14793 1.2302 1.2653 2.1023 2.4955 1.9505m4.3351 6.7197c-0.14989-1.2302-1.2672-2.1023-2.4975-1.9544-1.2283 0.15183-2.1043 1.2711-1.9524 2.4994 0.14989 1.2263 1.2692 2.0985 2.4994 1.9505 1.2302-0.14989 2.1043-1.2692 1.9505-2.4955m-78.73 32.817c-0.1207-0.0564-0.25695-0.072-0.39127-0.072-1.425 0.80394-4.8179 2.4839-8.8453 2.9433-4.6309 0.52558-10.412 0.20829-12.451 0.072-0.19271 0.0954-0.38348 0.23165-0.47108 0.4555-0.0312 0.0838-0.0273 0.17715-0.0351 0.26669 0.54699 1.4872 2.114 4.6212 5.7482 5.1643 5.5692 0.84482 9.879-3.132 9.879-3.132s4.52 1.4015 5.8534-0.43797c0.94604-1.3101 1.0726-3.6557 1.0706-4.9132-0.0876-0.1421-0.19661-0.27253-0.35817-0.34649m17.125-79.285c0.0993-0.25695 0.0467-0.5723-0.0448-0.81951-2.1412-2.3417-9.2639-9.8732-16.356-14.596-3.1613-2.1082-5.9176-2.5559-5.9176-2.5559l-4.3467 4.8489s2.5734 6.2097 3.1048 6.8871c0.52169 0.67352 5.9137 4.0431 5.9137 4.0431l2.6979 3.3987s3.3735 2.0809 7.0233 1.4249c2.7953-0.50223 6.1201-1.7967 7.7474-2.4021 0.0642-0.072 0.13237-0.13627 0.17714-0.22971m9.99-4.7535c0.18104-1.9154-2.4157-4.4771-2.4157-4.4771l-12.709-13.167s-1.1621-1.1505-1.9875-1.5904c-1.5592-0.83313-3.3968-0.03702-3.3968-0.03702s-5.0495 1.7811-5.8126 2.7933c-1.0687 1.4093-0.2511 2.7272-0.2511 2.7272s7.4671 4.4616 13.744 10.761c2.4157 2.4274 6.5445 7.0797 6.5445 7.0797l4.6972-1.8201s1.4502-0.7767 1.5865-2.2698m11.824-3.1145-13.052-17.07s-1.2614-1.4035-3.6635-1.4151c-1.7695-0.01361-4.738 0.99277-4.738 0.99277s-1.3879 0.36011-1.4405 1.8376c-0.0506 1.6157 0.96746 2.7895 0.96746 2.7895s12.789 13.132 13.426 14.644c0.5645 1.3256 0.52751 2.4527 0.43409 3.0717 0.0506 0.11096 0.1129 0.21996 0.21217 0.29978 0.0935 0.0778 0.2044 0.12263 0.32314 0.15183l6.2466-0.58203s1.5202-0.62096 1.8434-1.8824c0.40101-1.5592-0.55867-2.8381-0.55867-2.8381m10.346 2.404-4.9132-15.18s-0.53921-1.9914-1.4269-3.062c-1.3626-1.6351-2.7505-1.8044-2.7505-1.8044l-6.6009-0.93632s-1.7617-0.19854-2.5968 1.0687c-0.75139 1.1446-0.14016 2.4897-0.14016 2.4897s9.8284 13.562 10.617 14.919c0.59565 1.0239 0.50805 3.0503 0.43993 4.0761 0.0448 0.1791 0.11289 0.36012 0.26668 0.48471 0.0351 0.0311 0.0817 0.037 0.12847 0.0642 1.2847 0.0103 5.0943 0.39516 5.976 0.14989 1.5456-0.4263 1.0005-2.2697 1.0005-2.2697m6.632-15.168c-0.95968-1.3315-2.5929-1.7033-2.5929-1.7033l-4.1949-1.4599s-1.3606-0.38542-1.8901 1.2945c-0.3387 1.0609 0.44967 4.0139 0.44967 4.0139l4.9989 16.906 4.4518 1.7422c0.0739-6e-3 0.15767 2e-3 0.2336-0.0272 0.21995-0.0935 0.3679-0.29199 0.48274-0.49444l-0.84871-17.2s-0.0915-1.6838-1.0901-3.0717m12.359 5.1721c-0.82147-1.7539-2.6065-2.262-2.6065-2.262l-2.4391-0.88765s-2.0166-0.60344-3.0756 0.59761c-0.78643 0.89153-0.51195 3.4123-0.51195 3.4123l0.91489 16.718 4.4051 3.8251c0.1752 0.0429 0.35429 0.0681 0.53531-3e-3 0.18688-0.072 0.32315-0.22386 0.43994-0.38736l2.7233-18.008s0.24527-1.6546-0.38542-3.0036m14.014 5.7347-6.4277-3.4864s-1.8824-0.61707-3.2177 0.41073c-1.2886 0.99665-1.5943 2.2872-1.5943 2.2872l-2.8265 19.922 3.6635 4.847c0.14988 0.0759 0.31145 0.13821 0.49053 0.12069 0.22776-0.0214 0.42631-0.16156 0.58982-0.31146 2.1627-3.8562 10.097-18.504 10.525-19.709 0.9441-2.6571-1.203-4.08-1.203-4.08m6.0383 4.4966c-1.6469-0.13042-2.404 1.4657-2.404 1.4657l-11.284 21.306 2.482 4.2086c0.15573 0.13043 0.35429 0.25306 0.60345 0.26084 0.22386 0.0136 0.43409-0.07 0.6268-0.16935l11.992-11.865 0.13626-13.866s-1.2225-1.2731-2.151-1.3412m13.179 17.194s-0.36596-2.8926-1.5008-3.8621c-2.0225-1.7208-4.1054-1.205-4.1054-1.205l-3.4338 6.1473-13.68 11.497 2.1491 10.508c0.10513 0.12653 0.22386 0.23944 0.38738 0.2881 0.1927 0.0623 0.401 0.0312 0.59954-0.0273l4.9444-4.2513-1.057-6.6593zm-14.533 32.681c0.10319 6e-3 0.20634-0.0312 0.30562-0.0623l2.1568-1.9739-2.0712-6.6457c-0.13821-0.15767-0.31924-0.30756-0.54895-0.33481-0.0817-0.0117-0.1674 0.0117-0.24916 0.0312l-4.2086 2.9783 4.3623 5.9274c0.0778 0.037 0.15767 0.0798 0.25307 0.0798m4.5238 1.676c-0.14015-0.17325-0.32313-0.34455-0.57036-0.38153-0.21217-0.037-0.42825 0.0409-0.61511 0.12652-3.5214 3.6187-17.62 17.841-32.43 29.094-11.5 8.7324-19.043 13.121-21.412 14.467-0.18687 0.1674-0.3679 0.36596-0.41462 0.64043-0.0526 0.31923 0.0818 0.65405 0.23943 0.92073l4.0858 1.9136s-0.90517 3.9516-0.32313 4.6815c0.57814 0.72998 6.1317 3.3481 11.353 0.74555 2.6455-1.3198 0.56452-5.6821 1.9621-6.889 1.4112-1.2244 3.9555-3.1574 5.4699-3.3716 2.8498-0.40488 3.2236 4.7983 5.8749 3.718 2.3028-0.9363 5.3025-3.4416 6.3712-5.8359 0.94605-2.1179-1.0064-4.4285-0.72607-5.5828 0.3718-1.5028 5.4233-4.9249 6.5094-4.9872 2.8849-0.16157 3.4864 3.3112 4.7789 2.7136 2.1043-0.96746 3.9613-2.3768 5.5536-5.612 1.3646-2.7584-1.166-4.4831-0.71051-6.0734 0.34844-1.2205 3.7141-4.1073 4.8879-3.9867 1.5202 0.16157 1.3899 2.3691 2.5636 2.2424 1.1388-0.11874 2.3534-2.8634 2.3534-2.8634zm241.92 71.374c-4.5025-4.2222-3.9613-7.0797-3.9613-7.0797s-11.146-6.8111-24.43-11.158c-11.423-3.7374-32.532-4.9794-38.235-5.2596-0.21413 0.037-0.44382 0.11874-0.59371 0.30951-0.14599 0.18492-0.17909 0.43214-0.18493 0.66184l2.26 3.4377s25.987 1.2478 41.431 7.3154c15.484 6.085 24.017 17.548 28.346 19.569 6.7625 3.1535 6.4043-2.9958 6.4043-2.9958s-6.5328-0.5723-11.037-4.8003m-224.44 11.923c-8.0414-2.4897-21.255-4.6524-21.255-4.6524l-14.72 33.06-2.0595 0.19854 12.577-34.511s-13.346-3.2781-23.281-2.7447c-12.012 0.64626-29.061 7.5255-29.061 7.5255l-11.458-1.9057-9.6026 17.93-15.658 27.548 2.4527 0.58982s11.677-13.14 24.865-13.097c7.5061 0.0252 10.393 3.9555 11.138 5.2383 0.0778 0.0214 0.14599 0.0487 0.22385 0.0584 0.13821 0.0252 0.27836 6e-3 0.42437-0.0194 0.50611-0.42436 1.4696-1.166 2.7856-1.9602l3.1613-5.6276-13.606-11.43 1.4172-0.83705 13.871 9.2678 1.9311-3.4377-11.954-11.669 2.044-0.43604 11.553 9.1743 1.7402-3.1029-9.8284-10.371 1.8746-0.58397 9.5013 8.2009 1.6176-2.8907-7.3562-9.9296 1.857-0.54699 6.9571 7.8798 1.9856-3.539-4.814-7.1032 1.4112-0.44187 4.8645 4.9502 3.2041-5.7133 1.9154-0.24917-1.4405 3.3851 7.1032-1.7695 0.77668 1.1738-9.295 3.9244-1.3646 3.2041 11.17-2.9744 0.9402 1.3666-13.475 4.8179-1.168 2.7505 15.123-3.4922 1.0122 1.0142-17.598 5.9118-1.0998 2.5832 17.269-3.1535 1.3957 1.3373-20.204 5.4466-1.5514 3.648 19.544-3.208 1.0628 1.3626-22.023 5.1721-1.2477 2.9297c2.2327-0.31535 4.6951-0.2842 7.327 0.38348 6.7001 1.6955 8.6624 6.1065 9.3398 7.9889 0.11679 0.0857 0.255 0.15378 0.40295 0.19466 0.22775 0.0526 0.46718 0.0409 0.69687-0.0103 2.4372-1.8337 10.344-6.8306 21.074-3.7472 4.5219 1.2925 7.6073 3.86 9.6824 6.381l1.787-3.6207-14.3-14.422 1.9797-0.32897 14.051 11.259 1.4424-2.9101-12.326-14.327 1.6702-0.37569 12.346 11.288 1.5924-3.21-10.286-12.161 1.6215-0.55089 10.233 9.552 1.7014-3.4416-8.4327-9.7116 1.5456-0.73192 8.5105 7.1654 1.606-3.241-4.7322-7.0233 1.4288-0.32897 4.5882 4.7575 2.7252-5.503 1.2302 0.88181-1.6644 4.6815 6.1979-0.5178 1.0356 1.5748-8.0744 1.2964-1.0901 3.0562 9.4391 0.10513 1.1426 1.6273-11.643 1.2672-1.349 3.7686 12.618-0.0681 1.0882 1.4405-14.74 1.534-1.4054 3.9594 15.902-0.59176 1.4658 1.312-18.609 2.7642-1.3082 3.6693 20.548-1.2789 1.1699 1.2673-23.155 4.0489-2.4255 6.8248c0.0526 0.29004 0.17908 0.61317 0.46328 0.80589 0.1168 0.0876 0.25306 0.13041 0.39906 0.1674 3.282-1.166 9.6045-2.7039 15.497-0.0428 3.6168 1.6332 5.614 4.0976 6.4958 5.433 0.19466 0.0974 0.40684 0.16741 0.63849 0.12848 0.15183-0.0194 0.28614-0.0993 0.41657-0.17715l4.7944-9.5422-0.1752-4.3428 2.2114-3.1516-0.51001-6.8578 3.8387-19.425s-13.922-6.2661-23.367-9.1937m45.744-171.31c0.0584-0.21997-0.0214-0.45356-0.11095-0.65211-2.6552-0.81563-7.8896-1.4931-14.995 2.1491-10.488 5.3746-10.177 9.4604-10.177 9.4604l5.3317 0.38154 2.0381-2.4372 2.476-1.0473-0.36401-0.82146c-0.0681-0.16741-0.11485-0.34455-0.0876-0.52558 0.0254-0.13043 0.0876-0.24721 0.16156-0.35428l1.2244-0.80589c0.10901-0.03115 0.21997-0.06229 0.33481-0.04671 0.0954 0.01557 0.16742 0.06423 0.24917 0.10512 0.31924 0.44771 0.57619 0.89154 0.88764 0.8604 0.4341-0.04672 4.4889-2.7817 4.4889-2.7817l0.86234-2.075 4.7147-0.94994 2.8069-0.17324c0.07-0.08176 0.13238-0.17325 0.15768-0.28614m-129.71 64.56c0.27836-0.62096 1.1115-14.381 1.1115-14.381s-2.3943-6.1998-3.1359-6.5191c-0.73971-0.31924-10.718 3.1165-10.718 3.1165l-0.60539 0.8273s2.809 0.72024 6.194 5.5634c4.8431 6.9259 3.862 16.231 2.2424 23.776-1.0161 4.7205-3.0736 8.2166-4.2708 9.9549 0 0.22581 0.0351 0.48471 0.20827 0.66964 0.14989 0.16741 0.36402 0.23749 0.5723 0.28614l4.5921-0.73581c0.18298 0.0565 0.36985 0.14015 0.49248 0.2881 0.0974 0.1129 0.14405 0.24916 0.16936 0.39516l-1.5592 3.0874 0.11486 2.7408c0.10901 0.1168 0.23554 0.22386 0.40099 0.26279 0.10125 0.0292 0.21024 0.0155 0.31535 0 2.0128-1.2692 7.7571-5.8514 7.8622-16.949 0.0487-4.8489-5.1799-10.971-5.1799-11.605 0-0.6307 0.91879-0.15573 1.1932-0.77669m171.75 58.055c-0.17324-0.10902-0.38348-0.12069-0.58592-0.1129-0.82535 0.64043-2.2814 1.2673-4.5822 0.63654-3.1807-0.87597-6.2875-6.961-7.7883-9.295-0.15769-0.0974-0.32509-0.16545-0.51391-0.14404-0.22386 0.0233-0.41657 0.15378-0.57814 0.30172-1.1952 2.6201-4.5803 9.6492-7.2686 16.754-3.4065 8.9855-5.8962 23.223-5.8962 23.223l5.0982 0.0506s1.4541-1.4775 3.4026-5.7756c1.9544-4.2942 5.7172-14.375 5.7172-14.375l3.6965-2.7c0.27448 0 0.61903 0.0429 0.84483 0.2511 0.10512 0.0877 0.17519 0.20246 0.21802 0.32509-0.40489 1.6469-1.1232 4.2728-2.2114 6.7761-1.7578 4.047-7.7961 16.914-7.7961 16.914l2.0653 1.7753s2.6395-3.4338 5.4057-8.1466c4.1638-7.0973 6.2739-16.771 6.2739-16.771s4.337-3.4143 4.6893-4.0918c0.24137-0.47302 0.21022-3.2488 0.14209-5.1604-0.0681-0.1713-0.16156-0.33286-0.33286-0.43408m45.146 115.06c0.1382-0.25306 0.11484-0.58593 0.0584-0.84677-1.4035-1.2692-4.4596-3.3132-9.7427-3.5058-6.1668-0.22386-14.631 4.7944-16.68 6.0695-0.11095 0.0234-0.21607 0.0409-0.32507 0.0234-0.23943-0.039-0.41657-0.20635-0.54895-0.37375-0.072-0.11096-0.13625-0.20828-0.22191-0.33481-0.039-0.0818-0.0642-0.13626-0.0642-0.13626l-6e-3 0.039c-1.8064-2.6902-6.8676-9.5403-11.594-9.8575-7.7066-0.52752-13.813 5.865-13.813 5.865l-3.9866-2.1879 2.8168-7.3154c-0.0136-0.16156-0.0506-0.32313-0.14404-0.46328-0.11096-0.18298-0.29199-0.31535-0.49054-0.41852l-19.314 0.32314-14.142 12.233-2.441 5.6704c6e-3 0.25111 0.0487 0.54893 0.26278 0.74359 0.0817 0.0818 0.18687 0.12459 0.29199 0.16157l21.899-0.68909 0.24137-1.7559c0.0818-0.18493 0.18688-0.36013 0.35039-0.46719 0.15962-0.0993 0.3387-0.11096 0.5139-0.10901l2.2347 1.2205 1.7947-1.3003c0.22969-0.0526 0.49054-0.0876 0.71441 0.0103 0.1674 0.0798 0.2803 0.21606 0.36595 0.36595l-0.1168 1.7947 1.1037 1.8746c0.0194 0.0974 0.0448 0.19272 0.0252 0.292-0.0175 0.13625-0.0798 0.26084-0.16157 0.364l-2.186 0.75334-1.8318 1.7636c-0.11095 0.0623-0.23165 0.10707-0.36012 0.10318-0.14209 6e-3 -0.28226-0.0409-0.401-0.10318l-1.3743-1.6508-17.387 4.777c-0.14989 0.16545-0.292 0.36401-0.29588 0.60734-2e-3 0.21023 0.0974 0.40294 0.20828 0.58008 4.8625 1.1582 16.885 3.642 26.876 2.6571 11.882-1.1757 24.751-8.8648 33.971-12.04 7.6384-2.6435 19.721-4.045 23.628-4.4557 0.10901-0.0681 0.20828-0.16157 0.27058-0.28031m129.31-7.5431c-3.3423-1.7169-9.1159 1.3626-11.762 2.3768-1.1563 0.4477-1.9135 1.094-2.4157 1.6838-0.0662 0.25499-0.10513 0.60733 0.0935 0.8779 0.14599 0.20829 0.39126 0.31341 0.6268 0.38154 2.5111-0.23554 7.4535-0.55867 10.848 0.0254 4.7127 0.802 6.669 1.7072 6.669 1.7072s2.0946-3.8796-4.0606-7.0525m-243.11-9.7252-15.113 30.439c-6e-3 0.11874 6e-3 0.24333 0.0642 0.35427 0.0467 0.10513 0.13431 0.18688 0.22191 0.26085l2.334 0.66768 6.3771-12.577c0.16741-0.0409 0.36012-0.0564 0.52169 0.0117 0.12458 0.0564 0.19854 0.15572 0.25889 0.255l-3.3754 12.972c0.0117 0.0312 6e-3 0.0778 0.0272 0.10901 0.0526 0.10125 0.14015 0.17909 0.22775 0.25111l2.3962 0.6015c0.0409-0.0117 0.0877-6e-3 0.13627-0.0233 0.0876-0.0448 0.14988-0.11874 0.2219-0.19272l3.6226-11.072c0.14016-0.0739 0.29199-0.12459 0.43993-0.0954 0.13821 0.0214 0.23749 0.0954 0.32898 0.18881l-0.99276 12.399 1.7831 0.58008 2.5423-5.5536 1.4872-28.674zm67.747-144.69-2.7758-4.629-1.8804-18.675 0.037-7.5955-1.0745-10.34-3.7102-3.6362c0.15183-3.3403-0.14016-5.756-0.14016-5.756l-1.5105-2.6552-1.6469-0.99276s2.5033 8.3295-0.33287 16.992c-2.8498 8.7305-10.149 11.652-10.149 11.652l-1.629 3.9923c-3.9555 1.9213-7.5294 2.153-7.5294 2.153l-0.89738 1.5514c-2e-3 0.2297 0.0448 0.50222 0.22386 0.69494 0.072 0.072 0.16156 0.1129 0.2511 0.15573 2.8069 0.0312 11.321-0.36012 17.831-5.6452 3.7336-3.0288 5.1975-5.2247 5.7697-6.4355 0.14599-0.0584 0.29782-0.0974 0.44576-0.0584 0.0974 0.0214 0.17715 0.0681 0.24917 0.13237l0.47886 2.0401-1.314 2.2172 0.42629 4.0275c0.0312 0.0273 0.23749 0.18298 0.44577 0.16935l1.0375-1.0044c0.15573-0.0312 0.33481-0.039 0.48081 0.037 0.15184 0.0739 0.23359 0.22387 0.28615 0.36596l0.18298 1.6643-1.6896 2.0731 0.0759 3.1671c0.0312 0.0351 0.17908 0.16741 0.3932 0.15183l1.0317-0.92463c0.1421-0.0351 0.31535-0.0506 0.45551 0.0252 0.11289 0.0545 0.17324 0.16157 0.21995 0.27058l0.10319 1.4989-2.2347 2.0517 0.10513 2.7077c0.0467 0.0526 0.0798 0.11096 0.1421 0.15183 0.11875 0.0778 0.2589 0.10902 0.40489 0.12069l1.0181-0.83119c0.1674-0.0428 0.37764-0.0584 0.547 0.0252 0.13625 0.0681 0.21412 0.20439 0.27252 0.33481l0.24137 1.3938-3.9789 3.2508-4.9756-1.1854-0.22581-1.8376 3.4123 0.0915c0.0896-0.0526 0.17908-0.11484 0.24137-0.20634 0.0409-0.0545 0.0467-0.12264 0.0681-0.18298l-0.33871-2.4702-3.8464-0.0759-0.24722-1.1115c-0.0136-0.13821-8e-3 -0.28031 0.0623-0.39516 0.0857-0.1713 0.26279-0.25696 0.42241-0.30173l3.3716-0.42825c0.0545-0.0428 0.12263-0.072 0.16935-0.13042 3e-3 -2e-3 3e-3 -0.0103 8e-3 -0.0117l-0.21218-2.6649c-0.0272-0.0254-0.0351-0.0623-0.0642-0.0838-0.13431-0.10901-0.30562-0.15184-0.47886-0.17909l-2.2795 0.7728 0.0136-0.0194s-0.11289 0.0448-0.2589 0.0838l-0.12069 0.0351c-0.20828 0.0428-0.45939 0.0564-0.65794-0.0506-0.34844-0.18492-0.45356-1.0278-0.4594-1.166l0.0117-0.58788 3.9807-2.3379-0.15184-2.0887c-0.0974-0.13432-0.20633-0.2589-0.36984-0.31729-0.11096-0.0467-0.23555-0.0467-0.35429-0.0467-1.6818 1.6955-2.4157 2.8323-9.6278 5.0806-3.0327 0.9441-4.3409 1.2731-4.9093 1.3743-0.0681 0.0662-0.1421 0.12069-0.18493 0.2044-0.0564 0.10319-0.0623 0.21412-0.0681 0.33287l4.52 14.203-0.27253 1.7656c0.0175 0.25889 0.0759 0.51584 0.2628 0.71829 0.10513 0.10513 0.23359 0.18492 0.36985 0.24137 1.1757 0.16741 3.3404 0.44383 3.6206 0.28032 0.38348-0.23359 0.31924-2.7759 4.1541-4.2552 2.0556-0.78837 4.1541 0.0506 5.322 0.72023 0.0312 0.13432 0.0428 0.29004-0.037 0.49833-0.0565 0.13626-0.16157 0.2297-0.27447 0.29782-1.2789 0.20829-2.8129 0.59566-4.1599 1.4833-3.1924 2.0926-2.6571 4.0606-2.9374 4.2786-0.28032 0.22386-4.2513-0.52169-4.629-0.40684-0.37568 0.11874-0.70466 3.1516-0.70466 3.1516 0.0526 0.16157 0.13042 0.32314 0.27837 0.43409 0.1129 0.0876 0.24916 0.13042 0.38542 0.15573l13.134-3.5896 10.149-0.0681c0.12653-0.0467 0.24528-0.11484 0.33871-0.21607 0.13043-0.14599 0.1791-0.33871 0.21024-0.52947zm-188.33 46.807c0.13042-0.21024 0.12458-0.49054 0.0876-0.71441l-4.0996-4.1112-1.6196 2.1627 2.3126 3.4825 3.208-0.7144c0.0311-0.037 0.0798-0.0584 0.11095-0.10513m98.879 129.57s-0.73581 1.6838 0.66768 2.5384c1.4035 0.85845 19.46 7.0836 19.46 7.0836s2.5772-0.24527 3.5272-0.83508c0.9441-0.58982 1.2205-3.173 1.2205-3.173s-1.3996-0.64627-2.3028-0.72218c-0.91101-0.0778-3.3326 0.80977-3.3326 0.80977zm-78.232-117.17-10.514 5.6198s-4.4402 1.7072-4.5512-2.3534c-0.10902-4.0606 9.9081-9.879 9.9081-9.879l0.64237-2.3476-1.4288-1.4521-4.0139 4.191s-9.3865 5.2247-8.6468 9.6006c0.22191 1.3646 0.71635 2.3087 1.2731 3.0055 6e-3 0.13043-8e-3 0.27252-0.0778 0.38348-0.12264 0.21802-0.36986 0.29199-0.56257 0.32897-1.5456-0.75138-3.0639-2.0304-3.2158-4.1774-0.53141-7.5022 16.126-11.082 15.207-19.916-1.0259-9.9607-14.297-4.2552-14.297-4.2552l-2.3514 1.0706c-0.10513 0.1168-0.18493 0.24722-0.22191 0.40684-0.0759 0.29784 0.0233 0.62097 0.1382 0.89738l5.9779 5.9197 0.97719-0.41269-1.2147-5.9488s6.0929-4.446 7.837 3.4903c1.752 7.9324-18.169 8.4385-16.188 21.386 0.83899 5.5263 11.762 5.7385 11.762 5.7385l10.735 1.9992 4.1852-9.1646zm138.5-115.89c-0.19272-0.26279-0.46135-0.46134-0.72998-0.60733-5.3102-1.2419-28.03-6.2174-44.034-4.6582-23.08 2.2424-27.005 10.085-27.005 10.085s-1.3159 8.3022-1.6644 11.146c-0.24137 1.9466-0.42241 7.9265-0.5139 11.508 0.1421 0.0778 0.29783 0.14015 0.47497 0.14015 0.43604-6e-3 0.69689-0.17908 0.8565-0.35623l2.5364-20.108s6.0598-7.5528 23.826-9.2288c13.922-1.3121 35.578 1.9992 41.766 3.023 0.37764 0.15573 0.80978 0.40294 1.0979 0.78642 0.20245 0.27642 0.29783 0.62681 0.33676 0.9772-1.0628 5.4096-5.0553 26.115-12.649 48.945-11.327 34.04-33.869 49.565-39.333 53.179-0.0857 0.13042-0.15573 0.29199-0.13625 0.46524 0.0312 0.26668 0.14989 0.41656 0.26668 0.51196l2.0809 0.30756s28.545-16.536 42.399-59.839c8.4327-26.351 10.348-41.464 10.739-45.486-0.0526-0.28614-0.14016-0.5684-0.31534-0.79226m-11.425-15.604c-9.0244 1.1972-13.37 4.9482-14.995 6.7742-0.0623 0.19856-0.0935 0.41657-3e-3 0.62681 0.12068 0.29199 0.43213 0.47886 0.69298 0.58982l17.178 2.2697 10.621 2.5091c0.31146 0.15768 0.63069 0.3757 0.85455 0.68326 0.21413 0.28226 0.31341 0.65406 0.34455 1.022l-2.0731 14.226s1.3061 5.2344 1.1271 9.3943c-0.0915 2.1062-0.30756 3.7336-0.50612 4.8217 0.0915 0.17519 0.21024 0.33871 0.38932 0.45161 0.0818 0.0429 0.15573 0.0739 0.22775 0.10513 2.589-3.0426 9.2658-12.155 6.2875-22.349-4.298-14.701-13.724-17.216-19.79-17.183-0.17324-0.12653-0.33481-0.27836-0.40683-0.4808-0.0759-0.22386-0.0214-0.44966 0.0603-0.65406l0.26085-0.09148s9.8732-2.1666 17.327 6.8539c10.188 12.319 5.3044 24.508 3.0269 28.78 0.072 0.0993 0.146 0.20438 0.26474 0.27641 0.11485 0.0662 0.21997 0.12069 0.31923 0.15573 2.0926-1.8921 5.5147-6.2622 5.1118-14.413-0.78252-15.773-12.183-26.246-26.318-24.369m264.99 315s1.1953 11.397-0.62681 13.035c-2.3592 2.1295-3.3929 2.042-5.3337 1.0648-1.9447-0.9811-8.5319-6.8501-9.8556-7.7007-0.10512-0.07-0.21022-0.12653-0.3095-0.17908-0.16157-0.22969-0.33675-0.55673-0.28614-0.87207 0.0254-0.19271 0.14014-0.33871 0.27056-0.46717l0.91491-0.82926s0.67156-1.6196 0.44187-2.1354c-0.22972-0.52752-2.5832-1.7947-3.2236-1.4054-0.63262 0.39126-1.1426 2.0205-1.1426 2.0205s-1.5885-0.19271-1.8688 0.45551c-0.27836 0.65211 1.0687 2.7019 1.0687 2.7019s-2.8595 1.8668-5.1605 0.84093c-3.2138-1.4269-4.3215-7.1596-6.9824-9.0653-2.6668-1.8999-8.7499-2.075-11.259-4.2845-1.8162-1.6001-3.8036-4.596-5.0943-8.4853-1.2828-3.8932-1.4347-13.384-2.9744-19.269-1.528-5.8904-5.1331-12.659-4.8528-13.177 0.27836-0.51195 0.69298-1.3003 1.3996-1.785 0.7105-0.49056 5.614-2.1121 5.614-2.1121s1.8999 2.0868 1.9408 2.5968c0.0331 0.5139-1.131 2.371-0.19661 6.7022 0.93826 4.3448 3.6401 9.476 3.938 11.87 0.14015 1.1602 0.3971 1.8727 0.26083 2.3495 0.0254 0.0993 0.0526 0.20245 0.11679 0.28616 0.14989 0.19272 0.39128 0.2881 0.61513 0.35039l2.6707-0.15184c0.16741-0.0896 0.33481-0.19855 0.42436-0.39126 0.15377-0.30757 0.0662-0.68909-0.0272-0.96162-0.67352-0.51585-1.1212-1.2458-1.6975-2.1802-1.5125-2.441-4.6796-13.614-3.0717-16.225 1.3548-2.1899 2.4624-3.4338 3.2197-3.428 0.76696 0.0117 2.8654 1.8785 2.8654 1.8785s-0.45939 4.3642 3.1399 12.366c5.0105 11.123 8.6721 12.906 8.6721 12.906s0.88767 2.3223 0.0623 3.8367c-0.82729 1.5164-1.2497 2.99-1.2497 2.99l2.2425 2.6688c0.1304 0.0136 0.26666 8e-3 0.40099-0.0409 0.22579-0.0876 0.38542-0.292 0.50612-0.49055 0.17324-1.2886 0.71437-2.9783 2.3592-3.424 2.7446-0.73971 3.8562 1.7499 5.0572 1.604 1.1953-0.14796 2.1705-0.46524 2.1705-0.46524s-0.26279 6.1104 4.7593 10.751c5.0261 4.6485 10.081 6.2505 10.081 6.2505m-28.918-7.691s-2.8771-0.28613-3.3033-0.76891c-0.42434-0.49831-0.0857-3.8639-0.67546-4.2455-1.1251-0.71633-8.3782 2.4449-6.0422 3.8718 0 0 9.7914 4.1268 11.152 4.8003 1.6741 0.83507-1.131-3.6577-1.131-3.6577m-237.74-227.28c-0.072-0.0467-0.15962-0.0798-0.25111-0.0896-0.12847-0.0155-0.2297 2e-3 -0.32313 0.0272l-3.5526 5.76 0.23554 1.9193 1.8376-0.16546-1.6702 14.35 1.1115 0.82536-8.1466 15.822 0.51001 0.15572c0.17908 0.0993 0.42825 0.27447 0.49833 0.52169 0.0467 0.15573 0 0.31146-0.0584 0.44382l-16.71 8.7033s-4.7808 6.1843-5.3181 11.308c-0.75528 7.1965 3.1788 10.975 5.6685 12.623 0.25889 6e-3 0.61902-0.0331 0.87012-0.2842 0.0954-0.0935 0.16352-0.19272 0.21997-0.29004-1.674-3.5116-4.8159-12.044 0.90128-17.611 5.2344-5.1001 17.78-11.715 17.78-11.715s7.181-13.235 8.3957-21.603c1.1076-7.6423-1.3003-17.864-1.9992-20.702m-166.09-56.247c-1.4269-2.3846-16.805-8.3392-21.019-9.8848-0.6813-0.25306-0.59761 0.53921-0.59761 0.53921l1.3626 4.52 2.1024 7.3776 8.5338 7.8682c0.0876 0.0252 0.15573 0.0642 0.25305 0.0739 0.18298 0.0272 0.36207 0.0194 0.54311 0l4.4947-2.0498 2.1646-3.5506c0.24527-0.12458 0.56062-0.23554 0.85262-0.15963 0.22775 0.06034 0.38542 0.23359 0.51389 0.41463l-0.44382 10.438s0.31535 0.89348 0.87402 0.70466c1.5534-0.54309 4.6154-1.6605 5.3843-2.3691 1.0375-0.94993-3.352-11.152-5.0183-13.922"/>
</svg>
